<svg width="194" height="62" viewBox="0 0 194 62" fill="none" xmlns="http://www.w3.org/2000/svg">
<g clip-path="url(#clip0_1045_13171)">
<path d="M36.683 0.00415039C33.9596 0.00415039 32.373 2.10067 32.373 5.10404V7.04465V26.0868V28.0823C32.373 31.0189 33.9596 33.1467 36.683 33.1467C39.3548 33.1467 41.0119 31.0189 41.0119 28.0823V26.0868V7.04465V5.10404C41.0119 2.10067 39.3546 0.00415039 36.683 0.00415039Z" fill="#1756C2"/>
<path d="M56.9373 9.10383H54.9067V7.84344C54.9067 6.42926 55.7318 5.83354 57.9148 6.08102C60.2379 6.29668 60.7601 4.82063 60.7601 3.64139C60.7601 2.72924 60.4927 2.2661 59.788 1.44941C58.283 -0.0407857 54.4741 0.00340715 54.4741 0.00340715C54.4741 0.00340715 51.0217 -0.155688 48.6805 1.70042C46.3487 3.50704 46.5524 6.7966 46.5524 6.7966V9.1033H46.1788C44.6294 9.1033 42.9841 10.0667 42.9841 12.043C42.9841 14.0337 44.8506 14.946 46.3486 14.946H46.5522V28.6598C46.5522 31.0183 48.0006 33.1461 50.8566 33.1461C53.7713 33.1461 54.9063 31.0851 54.9063 28.7928V14.946H56.9369C58.0595 14.946 60.2889 14.3998 60.2889 12.1585C60.2889 9.8316 58.5307 9.1033 56.9369 9.1033" fill="#1756C2"/>
<path d="M81.3 8.34424C79.9029 8.34424 78.7856 8.97178 78.0542 9.92282C76.7102 8.99122 74.9398 8.34424 72.8754 8.34424C64.0784 8.34424 60.1812 14.9465 60.1812 21.3211C60.1812 28.1459 64.9161 33.426 72.8754 33.426C74.7611 33.426 76.5776 32.7984 78.0435 31.835C78.7607 32.8108 79.885 33.426 81.3 33.426C84.0358 33.426 85.5956 31.3208 85.5956 28.3492V13.4386C85.5956 10.5182 84.0356 8.34424 81.3 8.34424ZM68.7251 20.9918C68.7251 15.5613 71.3648 14.5984 73.137 14.5984C73.2079 14.5984 73.2964 14.5984 73.3584 14.5984C75.3961 14.7575 77.0008 16.1134 77.0008 21.2269C77.0008 26.2582 75.262 27.266 73.459 27.3664C73.3527 27.3664 73.2996 27.3664 73.1863 27.3664C71.1624 27.3664 68.7244 26.403 68.7244 20.9918" fill="#1756C2"/>
<path d="M29.0392 26.6187C28.5912 25.2752 21.3223 4.58577 20.9613 3.60981C20.5611 2.62872 20.1928 1.9181 19.3146 1.30505C17.8626 0.205524 14.7535 0.27093 14.7535 0.27093C14.7535 0.27093 11.6864 0.200221 10.2079 1.30505C9.34383 1.91845 8.97553 2.62908 8.59484 3.60981C8.22655 4.58559 0.957998 25.2754 0.456902 26.6187C0.0496492 27.9321 -0.302711 29.5409 0.456902 30.8524C1.29088 32.081 2.66633 33.1467 4.44407 33.1467C6.24678 33.1467 7.84586 32.3654 8.54367 30.1739C9.22361 27.9321 9.57951 26.8363 9.57951 26.8363H14.7535H19.9556C19.9556 26.8363 20.2938 27.9323 20.979 30.1739C21.6642 32.3659 23.3021 33.1467 25.0556 33.1467C26.9001 33.1467 28.3099 32.0808 29.0396 30.8524C29.8293 29.5407 29.523 27.9321 29.0396 26.6187H29.0392ZM11.534 19.7103L14.7535 9.21739L17.9829 19.7103H11.534Z" fill="#1756C2"/>
<path d="M182.693 58.0631H0V62H182.693C188.299 62 192.995 57.886 193.852 52.5566C191.339 55.9098 187.251 58.0631 182.693 58.0631Z" fill="#EFCF00"/>
<path d="M193.991 44.0718V40.9164H11.3324C5.09648 40.9164 0 46.0087 0 52.2399V55.3955H182.693C188.94 55.3955 193.991 50.2954 193.991 44.0718Z" fill="#D60F27"/>
<path d="M122.926 8.08921C118.305 8.08921 113.811 14.2674 112.217 16.6577C112.288 16.1133 112.407 15.2824 112.662 14.3328C112.998 12.7595 113.291 10.5308 112.217 9.21737C111.589 8.45725 110.663 8.08956 109.42 8.08956C105.14 8.08956 100.912 13.54 99.1042 16.2071C99.3184 15.4276 99.5734 14.4518 99.7452 13.8881C100.025 12.5764 100.577 10.5311 99.692 9.33935C99.1644 8.60397 98.295 8.27341 97.0628 8.27341C95.0496 8.27341 92.8097 9.21737 92.7158 9.21737L92.259 9.42243L92.6769 9.66814C92.6769 9.66814 93.2931 10.2833 92.8185 13.5395C92.0058 19.263 90.1344 26.0866 89.4049 28.7932C88.9852 30.1738 89.049 31.3012 89.6014 32.049C90.184 32.8108 91.2446 33.2475 92.5678 33.2475C94.4125 33.2475 96.0896 32.6323 96.1833 32.5439L96.456 32.4732L96.24 32.1957C96.24 32.178 95.2767 30.7497 96.5463 27.9745C100.824 18.4744 104.283 14.6915 105.249 14.0461C105.477 13.94 105.61 13.8128 105.775 13.8128C105.881 13.8128 105.934 13.8835 105.934 13.9365C106.04 13.9895 106.058 14.2229 106.04 14.4368C105.692 17.7387 104.295 23.2528 103.396 26.9401C103.203 27.7833 102.995 28.4691 102.886 29.0454C102.556 30.4578 102.666 31.5536 103.203 32.2819C103.737 32.8847 104.601 33.233 105.825 33.233C107.743 33.233 109.438 32.5294 109.508 32.517L109.857 32.3756L109.596 32.1405C109.596 32.0521 108.67 30.8465 109.97 27.9088C113.132 20.6012 117.403 14.8914 118.513 14.0608C118.888 13.7974 119.08 13.7638 119.193 13.7638C119.228 13.7638 119.246 13.7638 119.317 13.8698C119.405 13.9582 119.441 14.2711 119.405 14.6494C119.388 14.7908 119.264 15.2451 119.165 15.9222C118.531 18.4514 117.406 23.6805 116.79 27.3187C116.422 29.4912 116.601 31.119 117.406 32.0456C118.06 32.7933 119.083 33.23 120.327 33.23C122.497 33.23 124.504 31.8794 124.592 31.8299L124.909 31.6143L124.618 31.4181C124.618 31.4181 123.081 29.9721 123.836 25.7083C124.37 22.8497 125.061 19.5619 125.582 17.1716C125.829 15.9731 125.989 14.9779 126.122 14.4334L126.157 14.2195C126.435 12.9079 126.855 10.5128 125.718 9.15515C125.116 8.37028 124.208 8.07153 122.945 8.07153" fill="#D60F27"/>
<path d="M149.934 8.34428C148.622 8.34428 147.554 8.69428 146.825 9.40137C146.29 9.07258 144.468 8.08972 142.076 8.08972C140.711 8.08972 138.704 8.34428 136.452 9.76906C133.952 11.3158 131.843 13.7869 130.124 17.1707C126.234 24.7438 128.098 30.2747 129.076 31.6323C129.928 32.8114 131.107 33.3434 132.808 33.3434C135.214 33.3434 138.414 32.3995 143.294 24.7438C143.152 25.8221 142.991 27.3369 142.991 28.6289C142.991 32.799 145.934 33.248 147.147 33.248C150.29 33.248 151.386 31.7843 151.395 31.7348L151.519 31.5757L151.395 31.4166C151.359 31.3636 149.93 29.907 150.871 22.1504C151.777 14.7611 154.346 9.66689 154.346 9.60449L154.47 9.39943L154.252 9.25801C154.164 9.22266 152.044 8.34587 149.937 8.34587L149.934 8.34428ZM136.357 27.6652C135.716 27.6652 135.374 26.5692 135.374 25.4219C135.374 24.1792 135.996 17.025 139.029 13.3556C139.702 12.6414 140.502 12.1907 141.301 12.1907C143.244 12.1907 145.06 14.2672 145.51 14.8016C143.155 19.5798 139.847 24.5294 137.494 26.9547C137.062 27.4373 136.644 27.6652 136.357 27.6652Z" fill="#D60F27"/>
<path d="M174.049 8.08923C170.651 8.08923 166.571 13.7037 164.845 16.3079C165.13 15.1819 165.549 13.5216 165.872 11.9925C166.095 10.8471 165.943 9.95259 165.498 9.35157C164.914 8.69397 163.951 8.34396 162.603 8.34396C160.675 8.34396 158.346 9.1854 158.263 9.21722L157.925 9.35864L158.224 9.61319C158.224 9.64854 158.853 10.5377 158.465 13.6616C157.925 17.0647 155.756 25.5496 154.841 28.9844C154.421 30.365 154.524 31.3723 155.032 32.0882C155.806 33.1347 157.311 33.2549 158.347 33.2549C160.108 33.2549 161.862 32.6398 161.938 32.5514L162.274 32.4807L162.072 32.2031C162.06 32.1854 161.233 30.8703 162.196 28.3299C164.792 21.7895 167.676 17.9692 169.408 16.6577C169.808 16.3784 170.215 16.207 170.615 16.207C171.566 16.207 172.17 17.2729 172.17 17.2729L172.312 17.5398L172.522 17.3242C173.429 16.4244 175.047 14.5147 175.637 12.7917C176.044 11.7594 176.572 9.92254 175.779 8.85678C175.449 8.32469 174.86 8.08959 174.047 8.08959" fill="#D60F27"/>
<path d="M193.668 11.1636C192.715 11.4924 190.374 11.7081 187.232 11.7081C186.878 11.7081 186.585 11.7081 186.389 11.7081C186.531 10.8967 187.099 8.6038 187.715 6.42985C188.103 5.1182 188.059 4.04148 187.504 3.34482C186.959 2.67838 186.065 2.37964 184.707 2.37964C182.801 2.37964 180.059 3.22991 179.952 3.27941L179.545 3.40315L179.896 3.72134C180.947 4.79612 179.807 9.97555 179.317 11.9008C179.264 12.0068 176.588 22.2809 176.588 27.1911C176.588 31.31 178.847 33.3518 183.176 33.3518C185.195 33.3518 188.14 32.8073 190.119 31.0944C190.983 30.3484 191.364 29.2826 191.136 28.1547C191.012 27.345 190.61 26.7104 190.61 26.6786L190.468 26.3799L190.215 26.615C190.18 26.615 189.289 27.49 187.509 28.091C186.838 28.2872 186.31 28.4216 185.765 28.4216C185.193 28.4216 184.711 28.1865 184.26 27.8064C183.258 26.7794 183.904 23.1113 184.118 21.9321C184.455 20.0693 185.278 16.6026 185.457 15.7346C185.768 15.7346 186.422 15.7221 187.26 15.7221C187.978 15.7221 188.593 15.7346 189.195 15.7346C192.92 15.8053 193.963 12.9151 194 11.388V11.0061L193.668 11.1636Z" fill="#D60F27"/>
</g>
<defs>
<clipPath id="clip0_1045_13171">
<rect width="194" height="62" fill="white"/>
</clipPath>
</defs>
</svg>
