<svg width="201" height="62" viewBox="0 0 201 62" fill="none" xmlns="http://www.w3.org/2000/svg">
<g clip-path="url(#clip0_1044_13089)">
<path d="M29.6168 47.06C29.6168 44.589 29.6441 37.9839 29.5822 37.1701C29.6361 27.3417 22.3755 20.4086 17.7885 20.9491C14.6145 21.2202 11.9545 22.494 10.5262 26.1584C9.20243 29.5735 10.3859 34.1161 14.7872 35.182C19.4934 36.3267 22.2415 37.2791 24.2303 38.6228C26.6671 40.2678 28.6565 43.4107 28.7093 47.0639" fill="#0060AF"/>
<path d="M31.4953 62C23.1971 62 14.6689 59.9884 6.15209 56.0098L5.9431 55.9087L5.84315 55.6991C2.02117 47.7587 0 39.0739 0 30.5769C0 22.0927 1.93825 13.7796 5.76308 5.84988L5.86814 5.63916L6.0811 5.53408C13.9596 1.86072 22.435 0 31.2795 0C39.5186 0 48.3177 2.07143 56.7215 6.00079L56.9373 6.09526L57.0367 6.30989C60.932 14.3966 62.9861 23.0792 62.9861 31.4354C62.9861 39.7592 61.0137 48.0796 57.114 56.1613L57.0112 56.3737L56.7942 56.4721C49.0361 60.0867 40.287 62 31.4953 62ZM6.94034 54.921C15.2141 58.7514 23.4657 60.686 31.4953 60.686C40.0093 60.686 48.4767 58.8543 56.0139 55.3822C59.7581 47.5508 61.656 39.4909 61.656 31.4354C61.656 23.3475 59.6752 14.9344 55.9282 7.0857C47.7725 3.31228 39.2551 1.31128 31.2795 1.31128C22.7167 1.31128 14.5093 3.09877 6.86878 6.62513C3.20127 14.3111 1.33457 22.3649 1.33457 30.5769C1.33457 38.8045 3.27453 47.2211 6.94034 54.921Z" fill="#0060AF"/>
<path d="M27.6501 47.0639C27.6654 43.8964 25.8692 41.0956 23.5215 39.5903C21.439 38.2601 18.6432 37.3859 14.1329 36.2602C12.7387 35.9092 11.2803 35.1294 10.8288 34.1356C9.63454 35.32 9.4176 37.9828 9.62772 39.5389C9.87192 41.3398 12.0101 44.3078 15.2295 44.4241C17.1956 44.5017 19.6813 44.0076 20.8733 43.7584C22.9297 43.3213 26.1832 44.5889 26.7011 47.06" fill="#0060AF"/>
<path d="M31.2795 5.63135C25.8209 5.63135 21.1056 9.17448 21.1226 15.3055C21.1396 20.4612 25.3523 23.2212 26.8556 25.1926C29.1272 28.1634 30.3567 31.6797 30.4845 37.0601C30.5839 41.3421 30.5787 45.5705 30.6009 47.069H31.806C31.785 45.5012 31.7305 41.0123 31.7929 36.9276C31.8747 31.5455 33.1485 28.1634 35.4212 25.1926C36.9375 23.2212 41.1468 20.4612 41.1559 15.3055C41.1764 9.17448 36.4639 5.63135 31.0098 5.63135" fill="#0060AF"/>
<path d="M32.6651 47.06C32.6651 44.589 32.6367 37.9839 32.6974 37.1701C32.6441 27.3417 39.9002 20.4086 44.4911 20.9491C47.6651 21.2202 50.3223 22.494 51.7546 26.1584C53.0772 29.5735 51.8869 34.1161 47.4907 35.182C42.7823 36.3267 40.0376 37.2791 38.0437 38.6228C35.6097 40.2678 33.7594 43.4107 33.7026 47.0639" fill="#0060AF"/>
<path d="M34.6307 47.0639C34.6137 43.8964 36.4094 41.0956 38.7503 39.5903C40.8413 38.2601 43.6405 37.3859 48.1468 36.2602C49.5439 35.9092 51.0005 35.1294 51.4441 34.1356C52.644 35.32 52.8604 37.9828 52.6503 39.5389C52.401 41.3398 50.2685 44.3078 47.0547 44.4241C45.0892 44.5017 42.5905 44.0076 41.4035 43.7584C39.3551 43.3213 36.0925 44.5889 35.5723 47.06" fill="#0060AF"/>
<path d="M36.3145 57.2898L35.616 52.2734L37.3021 52.0219C37.7127 51.9665 38.2124 52.0369 38.4123 52.2901C38.6332 52.5545 38.7008 52.7731 38.7434 53.1196C38.807 53.5483 38.6809 54.0441 38.1903 54.2911V54.3062C38.7383 54.3062 39.0694 54.6935 39.1654 55.3475C39.1795 55.4855 39.221 55.8192 39.1795 56.0976C39.0682 56.7599 38.6667 56.9729 37.9892 57.0662L36.3145 57.2898ZM37.3997 56.3917C37.5996 56.3636 37.8024 56.3531 37.9608 56.2536C38.2033 56.0976 38.1812 55.7639 38.1477 55.5164C38.0631 54.9719 37.9188 54.7651 37.3322 54.8506L36.9636 54.9065L37.197 56.4196L37.3997 56.3917ZM37.0465 54.0737C37.2697 54.0381 37.5724 54.0117 37.6985 53.8032C37.7643 53.664 37.849 53.5533 37.7933 53.2437C37.7246 52.8764 37.6008 52.649 37.1272 52.7373L36.6859 52.8072L36.8597 54.0927" fill="#0060AF"/>
<path d="M43.6182 54.2726C43.6313 54.366 43.6466 54.4699 43.6523 54.5632C43.7886 55.4783 43.6182 56.2356 42.5733 56.4441C41.0286 56.737 40.7327 55.7924 40.4607 54.4699L40.3158 53.7545C40.1029 52.489 40.0115 51.531 41.5175 51.2359C42.3665 51.0833 42.9276 51.4159 43.161 52.2476C43.1974 52.3716 43.2428 52.4946 43.2599 52.6193L42.3359 52.8071C42.2291 52.4946 42.0877 51.9363 41.672 51.9832C40.9258 52.0715 41.1722 52.9854 41.2489 53.3671L41.5266 54.7405C41.6101 55.1558 41.7759 55.8192 42.4216 55.6912C42.9458 55.5878 42.7175 54.784 42.6709 54.4549" fill="#0060AF"/>
<path d="M45.1012 55.7907L44.7815 50.5992L46.0229 50.2264L48.6256 54.7416L47.6483 55.0294L47.0315 53.8819L45.9463 54.2028L46.0865 55.5073L45.1012 55.7907ZM45.8554 53.3643L46.6397 53.1408L45.5981 51.0402" fill="#0060AF"/>
<path d="M14.4388 51.8658C14.8273 50.6417 15.1754 49.7407 16.6576 50.1409C17.451 50.3589 17.9428 50.7032 17.9195 51.6103C17.9157 51.8121 17.848 52.0178 17.8037 52.2174L16.8808 51.9664C17.0018 51.4656 17.0785 51.0682 16.4515 50.8782C15.7268 50.6825 15.5502 51.5472 15.4503 51.9206L15.0749 53.2816C14.9556 53.6857 14.8125 54.3536 15.4503 54.5258C15.9773 54.6655 16.297 54.1563 16.4878 53.4129L15.8421 53.2447L16.0653 52.4571L17.5833 52.9378L16.8627 55.5609L16.1641 55.3743L16.3214 54.8198H16.3015C15.9801 55.2731 15.5877 55.3206 15.2441 55.2558C13.7261 54.8516 13.8846 53.8752 14.2469 52.5706" fill="#0060AF"/>
<path d="M20.089 54.0815L19.6318 56.2155L18.6028 55.9964L19.6994 51.0134L21.4537 51.4036C22.4804 51.6216 22.7905 52.0715 22.6451 52.9977C22.5622 53.5293 22.2959 54.1021 21.6456 54.0558L21.6388 54.0471C22.1885 54.2365 22.2351 54.5093 22.1391 54.9811C22.0977 55.1817 21.812 56.3997 22.0091 56.5964L22.0159 56.7456L20.9511 56.4723C20.9068 56.1347 21.0573 55.5277 21.1169 55.1918C21.1771 54.8944 21.2731 54.4752 20.9664 54.3176C20.7262 54.1918 20.637 54.198 20.3656 54.1365L20.089 54.0815ZM20.2645 53.3096L20.9573 53.4935C21.3781 53.5533 21.6121 53.3386 21.695 52.8384C21.77 52.3795 21.6729 52.2001 21.2952 52.1112L20.5524 51.9631" fill="#0060AF"/>
<path d="M26.6893 52.1269L27.7069 52.2431L27.2685 55.746C27.0556 56.8566 26.6194 57.3424 25.378 57.1903C24.115 57.0332 23.8151 56.4671 23.8918 55.3475L24.333 51.8474L25.3587 51.9631L24.9185 55.3849C24.872 55.7566 24.7845 56.3072 25.4563 56.3737C26.0521 56.4184 26.1872 56.03 26.2542 55.547" fill="#0060AF"/>
<path d="M28.8291 57.382L29.1352 52.3728L31.0905 52.4561C32.0145 52.5008 32.2564 53.2436 32.2274 53.9524C32.2007 54.3833 32.0639 54.8646 31.6822 55.1256C31.3693 55.3475 30.9673 55.4 30.5941 55.3822L29.957 55.3474L29.8297 57.4467L28.8291 57.382ZM29.9859 54.5834L30.5038 54.6119C30.9247 54.627 31.2035 54.4633 31.2398 53.8551C31.2603 53.271 31.036 53.1721 30.4908 53.1486L30.0802 53.1348" fill="#0060AF"/>
<path d="M166.734 10.4729L158.963 24.3553C156.029 22.0111 152.448 20.2857 147.878 20.2857C137.063 20.2857 132.67 28.2199 132.67 33.8087C132.67 37.9572 135.43 44.0781 145.053 44.0781C149.092 44.0781 154.834 41.3125 156.487 40.0543L148.801 56.1602C145.137 56.8796 143.934 57.3256 140.832 57.4201C123.61 57.9259 116.65 47.5129 116.655 36.8723C116.666 22.8059 129.373 5.69898 150.438 5.69898C151.729 5.69898 153.307 6.13831 154.657 6.62515L156.021 4.90808" fill="#0060AF"/>
<path d="M198.799 5.34351L201 55.8003H184.623L184.613 47.1467H173.446L169.77 55.8003H152.009L170.578 19.7698L166.391 19.743L174.347 5.34351H198.799ZM184.507 20.7792L178.193 35.4553H184.697" fill="#0060AF"/>
<path d="M106.316 5.34348C114.426 5.3882 119.009 9.72111 119.009 15.9801C119.009 21.7501 114.176 26.8577 108.87 29.4987C114.333 31.4751 114.805 36.3267 114.805 39.7592C114.805 48.0516 106.351 55.8002 95.3612 55.8002H71.3945L80.7433 20.2717L76.9032 20.2499L84.7533 5.34348C84.7533 5.34348 99.7209 5.29877 106.316 5.34348ZM98.3591 25.8007C100.037 25.8007 102.999 25.3826 103.739 22.1872C104.551 18.7184 101.771 18.625 100.438 18.625L95.6729 18.6045L94.0113 25.8009L98.3591 25.8007ZM91.6227 34.717L89.4288 43.0094H95.0392C97.2466 43.0094 100.255 41.9312 100.992 39.2327C101.72 36.5263 99.617 34.717 97.4175 34.717" fill="#0060AF"/>
</g>
<defs>
<clipPath id="clip0_1044_13089">
<rect width="201" height="62" fill="white"/>
</clipPath>
</defs>
</svg>
