<svg width="219" height="62" viewBox="0 0 219 62" fill="none" xmlns="http://www.w3.org/2000/svg">
<g clip-path="url(#clip0_1044_13073)">
<path fill-rule="evenodd" clip-rule="evenodd" d="M86.5682 47.0251C90.7303 47.3203 95.5804 44.1187 97.2888 42.2908C103.228 35.9273 103.372 26.7255 97.392 20.0612C95.1677 17.5805 89.9392 14.8387 86.6312 15.2247H74.655V46.9853L86.5968 47.0251H86.5682ZM81.4085 40.145V22.065C83.2831 21.9432 85.1637 21.9432 87.0383 22.065C88.5133 22.2344 89.9202 22.7736 91.1259 23.6317C98.0055 28.2866 95.139 39.3844 86.9236 40.128C85.0877 40.2558 83.2452 40.2615 81.4085 40.145Z" fill="#008CEB"/>
<path fill-rule="evenodd" clip-rule="evenodd" d="M191.705 47.0818H198.533V40.2358H212.08L212.12 47.0477H218.948V35.7626C218.948 32.3567 219.235 28.1106 218.375 25.0281C217.594 22.2063 215.902 19.7148 213.558 17.9339C211.213 16.1529 208.345 15.1802 205.39 15.1641C202.435 15.1481 199.556 16.0895 197.191 17.8448C194.827 19.6002 193.108 22.073 192.296 24.8862C191.378 27.9289 191.688 32.2942 191.688 35.6718C191.688 39.4865 191.648 43.3239 191.688 47.1386L191.705 47.0818ZM198.539 33.3501C198.499 30.5118 198.195 27.4748 199.542 25.2893C200.134 24.2831 200.983 23.4499 202.006 22.8746C203.028 22.2993 204.185 22.0023 205.361 22.0139C206.531 22.0224 207.678 22.3313 208.691 22.9104C209.704 23.4895 210.548 24.3189 211.14 25.3177C212.47 27.5883 212.155 30.4266 212.12 33.3557L198.539 33.3501Z" fill="#008CEB"/>
<path fill-rule="evenodd" clip-rule="evenodd" d="M113.622 47.0762H120.427C120.427 45.6457 120.244 41.269 120.49 40.2302H133.986L134.031 47.0705H140.848C140.814 43.2785 140.848 39.4922 140.848 35.7173C140.848 32.4816 141.152 27.8495 140.275 24.9771C139.489 22.1589 137.794 19.6722 135.449 17.8954C133.105 16.1186 130.238 15.149 127.285 15.1342C124.332 15.1194 121.456 16.0603 119.093 17.8135C116.73 19.5667 115.01 22.0364 114.195 24.8466C113.284 27.7984 113.593 32.3113 113.593 35.5981C113.593 39.3901 113.507 43.2785 113.593 47.0592L113.622 47.0762ZM120.433 33.3501C120.387 30.5118 120.095 27.4351 121.442 25.295C122.033 24.2914 122.88 23.4588 123.897 22.8801C124.914 22.3015 126.067 21.9969 127.241 21.9969C128.414 21.9969 129.567 22.3015 130.584 22.8801C131.602 23.4588 132.448 24.2914 133.04 25.295C134.375 27.5657 134.054 30.4494 134.031 33.3388L120.433 33.3501Z" fill="#008CEB"/>
<path fill-rule="evenodd" clip-rule="evenodd" d="M152.824 27.628L152.727 32.3567C152.727 36.3303 152.532 43.7496 152.727 46.9796H159.4C159.555 44.709 159.159 28.5817 159.578 28.0651C159.578 24.9316 162.886 22.0139 166.222 22.0025C167.957 21.9922 169.627 22.652 170.877 23.8417C171.726 24.6081 173.027 26.3565 173.004 28.1219C173.314 28.2979 173.067 45.1518 173.165 47.0194H179.844L179.792 27.7472C179.958 26.2373 179.041 23.9042 178.451 22.7234C177.356 20.4737 175.646 18.5725 173.516 17.2351C171.386 15.8977 168.92 15.1776 166.398 15.1564C163.876 15.1351 161.398 15.8135 159.246 17.1148C157.093 18.416 155.351 20.2881 154.217 22.5191C153.644 23.6828 152.681 26.0783 152.824 27.628Z" fill="#008CEB"/>
<path d="M31.3078 62C48.5987 62 62.6157 48.1208 62.6157 31C62.6157 13.8792 48.5987 0 31.3078 0C14.017 0 0 13.8792 0 31C0 48.1208 14.017 62 31.3078 62Z" fill="#008CEB"/>
<path d="M49.5502 31.1306V39.8555C49.5502 40.4232 49.3036 40.5424 48.8221 40.2642C48.1779 39.8815 47.5074 39.5438 46.8155 39.2538C44.7261 38.4296 42.4628 38.1312 40.2283 38.3853C37.7895 38.6986 35.396 39.293 33.0965 40.1564C30.8033 40.9227 28.556 41.7515 26.2169 42.393C24.2796 42.9626 22.2634 43.2251 20.2431 43.1707C18.0042 43.0847 15.8283 42.4129 13.9369 41.2236C13.6992 41.0819 13.5042 40.8797 13.3722 40.6381C13.2401 40.3966 13.1758 40.1244 13.1858 39.8499C13.1858 34.1354 13.1858 28.4209 13.1858 22.7065C13.1858 22.4283 13.1858 22.0991 13.4381 21.9572C13.6903 21.8152 13.9483 22.048 14.1662 22.1899C16.2201 23.565 18.6528 24.2787 21.1318 24.2335C22.9043 24.1615 24.6573 23.8384 26.3373 23.2741C28.7222 22.5419 31.0269 21.5712 33.3717 20.748C35.1969 20.0535 37.0684 19.4845 38.9728 19.0451C40.6072 18.6661 42.3032 18.6263 43.9539 18.9282C45.6045 19.23 47.1742 19.8671 48.5641 20.7991C48.8827 20.9924 49.1436 21.2663 49.32 21.5925C49.4963 21.9188 49.5817 22.2856 49.5674 22.6554C49.5674 25.4937 49.5674 28.332 49.5674 31.1703L49.5502 31.1306Z" fill="#FEFEFE"/>
</g>
<defs>
<clipPath id="clip0_1044_13073">
<rect width="219" height="62" fill="white"/>
</clipPath>
</defs>
</svg>
