<svg width="256" height="62" viewBox="0 0 256 62" fill="none" xmlns="http://www.w3.org/2000/svg">
<g clip-path="url(#clip0_1044_13064)">
<path fill-rule="evenodd" clip-rule="evenodd" d="M0 0H256V62H0V0Z" fill="white" fill-opacity="0.01"/>
<path d="M27.6764 57.5708C42.9617 57.5708 55.3529 45.6746 55.3529 31C55.3529 16.3253 42.9617 4.42908 27.6764 4.42908C12.3912 4.42908 0 16.3253 0 31C0 45.6746 12.3912 57.5708 27.6764 57.5708Z" fill="#00AED6"/>
<path fill-rule="evenodd" clip-rule="evenodd" d="M43.7962 30.1746C43.7047 28.5582 42.9486 27.0415 41.6919 25.9533C40.4352 24.8652 38.7793 24.2934 37.0833 24.3621H19.6022C19.4501 24.3616 19.2996 24.3325 19.1593 24.2765C19.019 24.2206 18.8916 24.1388 18.7845 24.0359C18.6773 23.933 18.5925 23.8109 18.5348 23.6768C18.4771 23.5426 18.4476 23.3989 18.4482 23.2538C18.4482 22.6416 18.9642 22.1456 19.6022 22.1456H37.315C37.2708 21.0293 36.8563 19.9551 36.1312 19.0777C35.4061 18.2003 34.4078 17.5649 33.2799 17.2631C28.1191 16.3882 22.8369 16.3882 17.6761 17.2631C16.2385 17.6064 14.9422 18.3538 13.9554 19.4082C12.9685 20.4625 12.3366 21.7753 12.1416 23.1763C11.3229 28.3914 11.3229 33.6937 12.1416 38.9088C12.4417 40.3873 13.2053 41.7441 14.3313 42.8C15.4574 43.8558 16.8929 44.5609 18.4482 44.8221C24.8544 45.5861 31.3354 45.5861 37.7416 44.8221C39.1348 44.545 40.4013 43.8571 41.3617 42.8557C42.3222 41.8542 42.9279 40.59 43.0932 39.2421C43.6621 36.2506 43.9019 33.2126 43.7962 30.1746ZM38.0545 33.8946V34.8788C38.055 35.0239 38.0256 35.1676 37.9679 35.3018C37.9102 35.4359 37.8254 35.558 37.7182 35.6609C37.611 35.7638 37.4837 35.8456 37.3434 35.9015C37.2031 35.9575 37.0526 35.9866 36.9005 35.9871C36.7484 35.9866 36.5979 35.9575 36.4576 35.9015C36.3173 35.8456 36.1899 35.7638 36.0828 35.6609C35.9756 35.558 35.8908 35.4359 35.833 35.3018C35.7753 35.1676 35.7459 35.0239 35.7464 34.8788V33.8946C35.4836 33.6716 35.2981 33.3776 35.2144 33.0517C35.1308 32.7258 35.1531 32.3833 35.2783 32.0698C35.4035 31.7562 35.6256 31.4863 35.9154 31.296C36.2051 31.1056 36.5486 31.0037 36.9005 31.0038C37.2523 31.0037 37.5959 31.1056 37.8856 31.296C38.1753 31.4863 38.3975 31.7562 38.5227 32.0698C38.6479 32.3833 38.6701 32.7258 38.5865 33.0517C38.5029 33.3776 38.3174 33.6716 38.0545 33.8946Z" fill="white"/>
<path d="M76.9504 44.2292C78.1001 45.809 79.6529 47.0834 81.4623 47.9322C83.2717 48.7811 85.278 49.1763 87.292 49.0807C92.1153 49.0807 95.6587 46.1241 95.6587 42.1057V39.9861H95.5409C92.8996 42.4661 89.2953 43.7603 85.6097 43.5588C82.7434 43.6341 79.9081 42.9767 77.3981 41.6549C74.888 40.333 72.7944 38.3948 71.3346 36.0413C69.865 33.681 69.0769 30.9917 69.0505 28.2467C69.0241 25.5018 69.7603 22.7991 71.1843 20.4135C72.6004 18.0359 74.6576 16.0629 77.1426 14.6988C79.6276 13.3347 82.45 12.6293 85.3171 12.6557C87.1779 12.542 89.0434 12.7898 90.8008 13.3839C92.5582 13.9781 94.1707 14.9062 95.5409 16.1122H95.6587V13.2137H103.908V41.9972C103.908 50.3633 96.9997 56.1642 87.292 56.1642C84.1544 56.3257 81.0215 55.7724 78.1526 54.5501C75.2838 53.3277 72.7614 51.4715 70.7942 49.1349L76.9504 44.2292ZM95.3133 26.3189C95.3133 22.9748 91.3595 19.9058 86.9466 19.9058C81.3674 19.9058 77.6493 23.1414 77.6493 27.9929C77.4868 30.2947 78.3807 32.5461 80.1077 34.1464C80.9576 34.9375 81.9793 35.5409 83.1007 35.9139C84.2221 36.2869 85.4157 36.4203 86.5971 36.3048C91.4205 36.3048 95.3133 33.4063 95.3133 29.7793V26.3189ZM125.627 12.3767C135.68 12.3767 143.002 19.2354 143.002 27.9929C143.002 36.7504 135.68 43.6131 125.627 43.6131C122.645 43.7969 119.668 43.1945 117.022 41.8719C114.376 40.5493 112.163 38.5576 110.625 36.1149C109.077 33.6635 108.259 30.8562 108.259 27.9949C108.259 25.1335 109.077 22.3263 110.625 19.8748C112.163 17.4322 114.376 15.4405 117.022 14.1179C119.668 12.7953 122.645 12.1929 125.627 12.3767ZM125.627 19.623C123.311 19.6455 121.098 20.5435 119.475 22.1201C117.853 23.6966 116.952 25.8227 116.972 28.0317C116.974 30.2407 117.895 32.3585 119.533 33.9205C121.171 35.4825 123.392 36.3609 125.708 36.3629C128.025 36.3506 130.241 35.4624 131.872 33.8932C133.502 32.3239 134.413 30.2019 134.404 27.9929C134.458 26.8765 134.267 25.7617 133.844 24.7195C133.421 23.6773 132.774 22.7308 131.946 21.9402C131.122 21.1534 130.133 20.5408 129.045 20.1422C127.956 19.7437 126.791 19.5642 125.627 19.623ZM147.464 13.2137H155.713V15.8332H155.835C157.166 14.6562 158.73 13.7443 160.435 13.1508C162.141 12.5573 163.953 12.2941 165.766 12.3767C174.625 12.5317 181.728 19.4602 181.744 27.9658C181.76 36.4753 174.681 43.4271 165.823 43.6131C162.328 43.6906 158.915 42.5862 156.18 40.4898H156.063V55.3272H147.464V13.2137ZM164.433 19.6849C159.898 19.6849 156.063 22.7501 156.063 26.0981V29.8336C156.063 33.4063 159.785 36.3591 164.486 36.3591C166.797 36.3447 169.008 35.4558 170.631 33.8876C172.255 32.3195 173.159 30.2006 173.145 27.9968C173.146 26.9053 172.921 25.8244 172.484 24.8157C172.046 23.8071 171.404 22.8905 170.595 22.1183C169.786 21.3461 168.826 20.7334 167.769 20.3153C166.711 19.8971 165.578 19.6855 164.433 19.6849ZM198.311 25.1487C203.947 24.4241 205.633 23.6452 205.633 22.1378C205.633 20.1848 203.479 19.0146 200.172 19.0146C198.44 18.8783 196.715 19.3375 195.308 20.3091C193.901 21.2807 192.905 22.7005 192.5 24.3117L184.365 22.6958C185.527 16.6702 191.98 12.3767 199.936 12.3767C208.941 12.3767 214.524 16.7826 214.524 23.9746V42.7761H206.791V39.5404H206.669C205.382 40.9367 203.773 42.0307 201.97 42.7371C200.166 43.4435 198.216 43.7433 196.271 43.6131C189.473 43.6131 184.771 40.0442 184.771 34.7974C184.771 29.2756 188.603 26.4313 198.307 25.1487H198.311ZM206.328 28.2719H206.214C205.454 29.3337 203.829 29.9459 199.648 30.6744C194.593 31.5657 192.792 32.5112 192.792 34.2394C192.792 36.0258 194.304 36.8086 197.555 36.8086C202.496 36.8086 206.332 34.6308 206.332 31.7866L206.328 28.2719ZM230.888 41.1602L216.653 13.2137H226.125L235.479 32.5112H235.593L244.834 13.2137H254.362L233.041 55.3272H223.569L230.888 41.1602Z" fill="white"/>
</g>
<defs>
<clipPath id="clip0_1044_13064">
<rect width="256" height="62" fill="white"/>
</clipPath>
</defs>
</svg>
