<svg width="177" height="62" viewBox="0 0 177 62" fill="none" xmlns="http://www.w3.org/2000/svg">
<g clip-path="url(#clip0_1045_13156)">
<path d="M177 57.8897C177 60.1587 175.164 62 172.9 62H4.09493C1.83454 62 0 60.1587 0 57.8897V4.10907C0 1.84376 1.83454 0 4.09493 0H172.9C175.164 0 177 1.84376 177 4.10907V57.8897Z" fill="white"/>
<path d="M177 57.8897C177 60.1587 175.164 62 172.9 62H4.09493C1.83454 62 0 60.1587 0 57.8897V4.10907C0 1.84376 1.83454 0 4.09493 0H172.9C175.164 0 177 1.84376 177 4.10907V57.8897Z" fill="white"/>
<path d="M169.726 3.30212H7.2716C5.08239 3.30212 3.28906 5.09836 3.28906 7.29236V20.5289H173.708V7.29236C173.708 5.09836 171.921 3.30212 169.726 3.30212Z" fill="#D61C24"/>
<path d="M3.28882 39.6153H173.709V22.3822H3.28882V39.6153Z" fill="#006AB4"/>
<path d="M3.28857 54.7081C3.28857 56.9021 5.0819 58.7021 7.27111 58.7021H169.723C171.92 58.7021 173.708 56.9021 173.708 54.7081V41.4728H3.28857V54.7081Z" fill="#FFCF21"/>
<path d="M148.335 14.9232L147.685 14.7005C135.205 10.4952 113.083 5.99707 88.4287 5.99707C63.7617 5.99707 41.6398 10.4952 29.1689 14.7005C25.3025 15.9601 23.8064 18.7846 23.704 20.7722L23.6917 41.0398L23.7005 41.215C23.8066 43.2476 25.3077 46.0745 29.1829 47.3342C41.66 51.542 63.7731 56.0326 88.4289 56.0326C113.077 56.0326 135.197 51.5395 147.687 47.3279L148.363 47.1015C151.518 45.8469 153.325 43.474 153.325 40.592V21.4439C153.325 18.5507 151.517 16.179 148.335 14.9232Z" fill="white"/>
<path d="M147.145 18.0125C147.021 17.9713 146.848 17.915 146.628 17.8386C135.914 14.2287 114.096 9.3053 88.4285 9.3053C62.7574 9.3053 40.9402 14.2287 30.2115 17.8436C27.4953 18.7255 27.032 20.4654 27.0007 20.9921V31.0139V41.0408C27.0319 41.5674 27.4953 43.3023 30.2115 44.1917C40.9402 47.8042 62.7574 52.7213 88.4285 52.7213C114.096 52.7213 135.914 47.8042 146.628 44.1917C146.848 44.1204 147.021 44.0554 147.145 44.0153C148.095 43.6401 150.012 42.6919 150.012 40.5918V31.0139V21.4436C150.012 19.3322 148.095 18.389 147.145 18.0125ZM146.623 33.9234V37.5547V38.2026C146.641 39.6536 146.071 41.0458 143.686 41.6237C136.005 43.3924 114.128 47.5215 88.5121 47.5215C62.886 47.5215 41.0064 43.3924 33.3261 41.6237C30.9433 41.0458 30.3888 39.1783 30.3888 38.2026V37.5547V33.9234V31.0139V28.1094V24.4782V23.8253C30.3888 22.8558 30.9433 20.9821 33.3261 20.4042C41.0064 18.6317 62.886 14.5126 88.5121 14.5126C114.128 14.5126 136.005 18.6317 143.686 20.4042C146.071 20.9821 146.64 22.3768 146.623 23.8253V24.4782V28.1094V31.0139V33.9234Z" fill="#D61C24"/>
<path d="M143.686 20.4042C136.006 18.6343 114.128 14.5127 88.5115 14.5127C62.8841 14.5127 41.0058 18.6343 33.3242 20.4042C30.9439 20.9834 30.3882 22.8547 30.3882 23.8266V24.4783V28.1108V31.014V33.9235V37.5547V38.2027C30.3882 39.1784 30.9439 41.0459 33.3242 41.6238C41.0058 43.3912 62.8841 47.5203 88.5115 47.5203C114.128 47.5203 136.006 43.3912 143.686 41.6238C146.07 41.0459 146.64 39.6549 146.624 38.2027V37.5547V33.9235V31.014V28.1108V24.4783V23.8266C146.641 22.3768 146.07 20.9834 143.686 20.4042Z" fill="white"/>
<path d="M141.506 36.7045C141.44 36.7045 141.371 36.7184 141.31 36.7396V36.6871L141.115 36.8447C140.553 37.2988 139.996 37.6302 139.469 37.8291C139.425 37.8504 139.388 37.8554 139.349 37.8729L139.321 37.8793C139.268 37.8981 139.226 37.9144 139.187 37.9281L139.159 37.933C139.116 37.9444 139.081 37.9582 139.039 37.9632L138.99 37.9756C138.961 37.9869 138.925 37.9929 138.898 37.9944L138.841 38.0057C138.718 38.028 138.604 38.0358 138.493 38.0358C137.776 38.0358 137.656 37.5317 137.64 37.4392C137.596 37.0327 137.712 36.4285 137.981 35.6292L138.035 35.4941C138.086 35.3403 138.147 35.1701 138.221 34.9512C138.298 34.7573 138.382 34.5397 138.474 34.3108L139.491 31.6077L139.751 31.5978L139.793 31.6016L141.006 31.5942L141.93 29.0775H140.389L142.511 23.4786H139.501L137.458 29.0775H135.994L135.039 31.5942H136.59L136.504 31.8194C136.493 31.8406 135.557 34.2923 135.09 35.3818C134.999 35.6157 134.88 35.8559 134.739 36.1035C134.439 36.6301 133.553 37.8735 131.901 38.0061C131.743 38.021 131.581 38.0284 131.436 38.0284C129.582 38.0284 129.154 37.1716 129.021 36.8902L129.017 36.8763L129.156 36.785C129.192 36.7676 129.227 36.7488 129.257 36.7362C130.147 36.2246 131.035 35.698 131.504 35.2377C131.642 35.1264 131.775 35.0088 131.91 34.88C132.366 34.4384 132.754 33.9456 133.054 33.4052C133.072 33.3839 134.566 31.0586 132.958 29.6376C132.955 29.6288 132.285 29.0772 131.186 29.0772C130.611 29.0772 130.022 29.2223 129.437 29.5138C129.405 29.5227 129.116 29.6827 128.728 29.9728L128.429 30.213C128.405 30.2382 128.37 30.258 128.342 30.2868C128.291 30.3381 128.229 30.3906 128.16 30.4532L128.058 30.5445C128.027 30.5807 127.994 30.6132 127.957 30.6433L127.92 30.6921C126.877 31.7415 125.242 33.948 125.928 36.8763L125.949 36.9626C124.841 37.6643 124.338 37.9083 123.636 37.9083C123.513 37.9083 123.381 37.8983 123.23 37.8884C123.01 37.8671 122.851 37.7833 122.741 37.6407C122.483 37.2992 122.596 36.7051 122.6 36.6876L122.603 36.6501C122.614 36.6377 122.614 36.6224 122.617 36.6038C122.631 36.5786 123.51 33.9782 124.374 33.0338L124.412 32.9938L124.161 31.2864L124.053 31.2903C123.96 31.3002 123.841 31.3066 123.71 31.3066C123.021 31.3066 122.097 31.174 121.57 30.511L121.476 30.3872L123.188 28.7286L122.118 28.6911C122.089 28.6911 121.378 28.6911 120.855 28.2558L120.196 27.6629L118.46 30.1346L118.474 30.1833C118.587 30.6211 118.53 31.7394 117.615 33.2217C116.485 34.8953 115.462 35.9848 114.479 36.5715C114.011 36.8329 113.675 36.9517 113.405 36.9517H113.354C113.198 36.9418 113.12 36.8542 113.085 36.8091C113.005 36.6878 113.005 36.5314 113.078 36.315L115.787 29.0776H113.766C112.963 29.0776 112.698 29.5567 112.664 29.6167L112.563 29.8268L112.415 29.6605C112.007 29.2152 111.422 29.1264 111.013 29.1264H110.921C109.857 29.2077 108.255 29.7318 106.617 31.7519C106.61 31.7618 105.903 32.4699 105.245 33.8246L105.213 33.8834C104.579 34.9816 104.443 36.0799 104.423 36.2025L104.412 36.2913L102.796 37.0731C102.796 37.0731 102.736 37.1043 102.655 37.1344C102.569 37.1719 102.509 37.1819 102.446 37.2057L102.421 37.2106C102.37 37.2255 102.315 37.2443 102.24 37.2607C101.988 37.2995 101.831 37.2305 101.731 37.0781C101.542 36.7966 101.695 36.3301 101.741 36.1937L103.075 32.6613C103.555 31.3491 103.603 30.3384 103.211 29.7555C102.878 29.2527 102.317 29.1614 102.037 29.1489V29.129L101.924 29.1489H101.884L101.825 29.1577C101.814 29.1616 101.804 29.1652 101.778 29.1652C100.441 29.3453 99.0165 30.6024 98.9503 30.6587L98.7704 30.8176L98.7032 30.5811C98.682 30.5186 98.2448 29.0638 96.745 29.0638C96.6275 29.0638 96.4876 29.0752 96.3578 29.094C96.3437 29.1003 94.8018 29.4192 93.7253 30.4599L93.423 30.7539L93.4584 30.3248C93.4584 30.3248 93.5033 29.7682 93.1936 29.4142C92.8327 29.0077 92.1184 28.9914 91.1181 29.3704C91.1181 29.3704 89.9991 29.857 89.346 30.1397L86.2888 31.4055L86.3526 31.5231C86.5324 31.8533 86.6821 32.1948 86.7821 32.5226L86.8222 32.6439L90.0342 31.6332L87.022 39.7988H89.1113L90.3002 39.8176L92.5006 34.0999C92.5077 34.085 92.944 32.7465 93.8481 32.7465C94.0205 32.7554 94.1352 32.8128 94.2065 32.9191C94.4189 33.2518 94.1818 34.0061 94.0692 34.2638C93.9255 34.6253 92.111 39.4523 92.0361 39.6625L91.9774 39.8176H92.5968L92.611 39.7988H94.2544L95.4471 39.8176L97.645 34.0999C97.6592 34.085 98.0846 32.7465 98.9975 32.7465C99.16 32.7553 99.2736 32.8128 99.3483 32.9191C99.5657 33.2518 99.3306 34.0061 99.217 34.2637C99.1695 34.3701 98.9908 34.8541 98.6125 35.8398L98.4426 36.3026C98.2855 36.778 98.1166 37.491 98.1927 38.1927C98.221 38.4741 98.2939 38.7356 98.4001 38.9682C98.4284 39.037 98.4564 39.0896 98.4925 39.1546L98.5775 39.2922L98.5846 39.2808C98.6607 39.3859 98.7531 39.4672 98.8657 39.546L98.8869 39.5573C98.963 39.5875 99.1789 39.6799 99.4838 39.7349H99.6399C99.8909 39.7349 100.353 39.6774 101.442 39.1145L104.56 37.5184L104.614 37.7023C104.752 38.1814 105.421 39.5748 106.695 39.7587C106.881 39.7839 107.044 39.7988 107.213 39.7988H107.362C107.738 39.7988 109.011 39.735 109.793 38.9156L110.065 38.6292L110.149 39.042C110.156 39.1383 110.37 39.7987 111.091 39.7987L111.147 39.8062C111.157 39.8062 111.179 39.8101 111.194 39.8101C111.286 39.8125 111.441 39.8324 111.628 39.7987C112.253 39.7349 112.798 39.4797 114.114 38.7442C116.146 37.6135 117.443 35.8973 118.495 34.3788C118.58 34.2637 118.614 34.1949 118.614 34.1949L119.037 33.602L119.128 33.4869C119.595 32.9015 120.021 32.6013 120.386 32.6L120.418 32.5951C120.635 32.5951 120.886 32.7202 120.896 33.0767C120.899 33.1617 120.896 33.3981 120.641 33.8247C120.62 33.8509 119.035 36.5691 119.21 38.0463C119.309 38.9157 119.836 39.446 120.82 39.6624L121.148 39.735C121.344 39.7662 121.66 39.7988 122.07 39.7988C122.965 39.7988 124.398 39.6412 126.478 38.2452L126.594 38.1564L126.683 38.269C127.679 39.5361 129.098 39.7988 130.118 39.7988H130.386H130.483H130.508C130.525 39.7988 130.605 39.8062 130.725 39.8062C131.725 39.8062 132.924 39.4172 134.294 38.6679L134.437 38.5904L134.501 38.7442C134.505 38.7467 134.508 38.7531 134.523 38.7855C134.785 39.1595 135.434 39.7987 137.026 39.7987C137.616 39.7987 138.173 39.7262 138.721 39.5835L138.812 39.5662L138.816 39.5725L138.867 39.5576C140.396 39.2224 141.829 37.7614 142.234 37.3199L142.3 37.2536L142.246 37.176C142.232 37.1508 141.92 36.7057 141.507 36.7057M130.921 31.3845C131.022 31.3845 131.111 31.4308 131.164 31.5059C131.28 31.691 131.186 31.9787 131.136 32.1013C131 32.4878 130.592 33.0207 130.417 33.2145L130.388 33.2521C129.604 34.1239 129.052 34.5642 128.755 34.5642C128.694 34.5642 128.635 34.5444 128.58 34.5104C128.552 34.4704 128.515 34.4266 128.5 34.3703C128.429 34.1602 128.545 33.8124 128.855 33.2708C128.949 33.1182 129.133 32.8243 129.133 32.8243C129.402 32.4553 129.72 32.1163 130.09 31.8323C130.601 31.4308 130.813 31.3845 130.923 31.3845M108.205 37.2448C108.099 37.2448 107.997 37.2186 107.911 37.1585C107.822 37.1047 107.696 36.9871 107.636 36.7407C107.484 36.119 107.805 34.9745 108.464 33.8412C109.062 32.8043 110.021 31.6872 110.723 31.6872C110.829 31.6872 110.926 31.7071 111.023 31.7623C111.314 31.9512 111.405 32.399 111.273 33.077C111.158 33.6774 110.867 34.3866 110.463 35.0846C109.87 36.1291 108.906 37.2448 108.205 37.2448Z" fill="#006AB4"/>
<path d="M73.3277 36.9616C73.2814 36.9765 73.0679 37.0467 72.7308 37.0491C72.7166 37.0516 72.6908 37.0516 72.6547 37.0516C72.4649 37.0516 72.3301 36.9891 72.2563 36.8677C72.1827 36.7402 72.1912 36.5776 72.2846 36.3624L77.1026 23.4786H74.1566L71.9512 29.4126L71.8188 29.3701C71.8188 29.3701 71.1906 29.1687 70.259 29.1687C68.9078 29.1687 66.9533 29.5927 65.3411 31.5966C65.3223 31.6154 63.9649 33.2015 63.5365 35.0627C63.5318 35.0915 63.499 35.2316 63.4666 35.4292L63.4599 35.4993C63.4287 35.7145 63.4049 35.9346 63.3912 36.1535L63.3838 36.2586L61.9426 36.914C61.9426 36.914 61.8852 36.9403 61.8103 36.9666C61.7078 37.0116 61.6342 37.0329 61.5692 37.0491L61.5441 37.0516C61.4916 37.0714 61.4454 37.0828 61.388 37.0966C61.1345 37.1354 60.9783 37.069 60.8709 36.914C60.6936 36.645 60.821 36.206 60.8883 36.0309L62.2295 32.4872C62.2695 32.3896 63.2323 30.2594 61.9735 29.32C61.9373 29.2987 61.72 29.1649 61.3766 29.1049L61.3429 29.0985C61.1781 29.0748 60.9995 29.0698 60.8109 29.0921H60.7585C60.7436 29.0921 60.7322 29.0921 60.7122 29.1045L60.6573 29.1134C59.3673 29.2848 57.9861 30.5119 57.8287 30.657L57.6501 30.8221L57.5814 30.5794C57.5552 30.5169 57.0944 29.0559 55.612 29.0559L55.4921 29.0546C55.4734 29.0546 55.4497 29.0546 55.4247 29.0559L55.2536 29.0747C55.1249 29.0921 54.804 29.1572 54.1721 29.4574C53.9236 29.5625 53.71 29.6713 53.4915 29.7952C52.8246 30.1517 51.8855 30.7959 50.6916 31.6152L49.9798 32.043L49.6338 32.2331L54.267 20.4325L45.9997 21.931C45.7799 21.9735 40.7309 22.9642 39.6644 25.7812C39.577 25.9776 38.8351 27.8088 40.0465 29.6038C40.0465 29.6275 41.1068 31.1761 43.1674 31.1761C43.1773 31.18 43.2298 31.1825 43.3047 31.1825C43.7543 31.1825 45.2754 31.0286 46.0222 29.1286L46.0846 28.976H45.9173C45.7175 28.9572 43.9741 28.8271 43.6044 27.3486C43.5008 27.0059 43.2872 25.79 45.078 24.8444C45.1592 24.8107 47.1024 23.8537 50.0871 23.3621L50.3506 23.3158L50.2582 23.586L47.0949 31.4802C47.0737 31.5377 45.4364 36.6875 40.9069 37.2516C40.6559 37.2904 40.4236 37.3079 40.1938 37.3079H39.974L39.5145 37.2516C39.0786 37.1453 36.8644 36.4936 36.3299 33.8818L36.2912 33.6905L36.1388 33.8156C35.5831 34.2571 34.6527 35.154 34.5603 36.1972C34.5103 36.8239 34.7801 37.4205 35.3671 37.9747C36.6746 39.2005 38.2069 39.8309 39.9465 39.8309H39.9554H40.0116H40.5436C41.5801 39.8309 43.6319 39.582 45.7212 37.8996L46.0871 37.6057C46.1308 37.5669 46.1671 37.5419 46.1671 37.5419C47.291 36.6037 50.0722 34.2809 50.4094 34.012C50.9739 33.5491 52.1053 32.7736 52.7946 32.7736C52.9957 32.7736 53.1481 32.8299 53.2605 32.95L53.2916 33C53.4228 33.2927 53.3928 33.6755 53.1992 34.1658L51.0593 39.7972H53.221H53.2143H54.387L56.7835 33.6468C56.7882 33.6369 57.2081 32.7537 57.91 32.7537C57.9624 32.7537 58.0274 32.7576 58.086 32.7735C58.5644 33.0525 58.2921 33.9068 58.1572 34.262L57.3218 36.4748C57.3218 36.4823 57.2368 36.6449 57.1607 36.9039C57.0146 37.3904 56.8647 38.3286 57.4804 39.1079C57.5815 39.2242 57.6939 39.338 57.8188 39.4456C57.8475 39.4793 57.895 39.5094 57.9412 39.5444L57.9624 39.5568C58.0286 39.582 58.2571 39.6769 58.5643 39.7332C58.8416 39.7619 59.0926 39.7396 60.3127 39.114L63.4473 37.5317L63.496 37.7306C63.7582 38.9376 64.4338 39.5943 65.564 39.7582C65.7463 39.782 65.9088 39.797 66.0836 39.797H66.2358C66.6067 39.797 67.8817 39.7332 68.6647 38.9139L68.9069 38.6587L68.9316 39.0227C68.9316 39.0553 68.9904 39.787 69.9132 39.787C70.4914 39.787 71.3169 39.523 72.1274 39.0815L76.2735 37.1402L75.8502 36.0432L73.3277 36.9616ZM67.1173 37.2443C67.0125 37.2443 66.9151 37.2166 66.8288 37.158C66.7364 37.1042 66.6079 36.9866 66.5491 36.7402C66.4004 36.1185 66.7215 34.9727 67.3734 33.8395C67.9778 32.8025 68.9406 31.6855 69.6412 31.6855C69.7499 31.6855 69.8522 31.7068 69.9372 31.7606C70.2331 31.9507 70.3218 32.3972 70.1921 33.0764C70.0735 33.6756 69.7849 34.3949 69.3815 35.0841C68.7871 36.1273 67.8154 37.2443 67.1173 37.2443Z" fill="#006AB4"/>
<path d="M86.5382 34.1691C86.5382 37.2663 84.1055 39.7905 81.1233 39.7905C78.1385 39.7905 75.7033 37.2663 75.7033 34.1691C75.7033 31.0695 78.1385 28.5503 81.1233 28.5503C84.1055 28.5503 86.5382 31.0695 86.5382 34.1691ZM81.1233 27.7147C77.6852 27.7147 74.894 30.603 74.894 34.1691C74.894 37.7303 77.6852 40.6298 81.1233 40.6298C84.555 40.6298 87.3512 37.7303 87.3512 34.1691C87.3512 30.603 84.555 27.7147 81.1233 27.7147Z" fill="#D61C24"/>
<path d="M85.0613 34.1692C85.0613 36.4232 83.293 38.252 81.1225 38.252C78.9495 38.252 77.1812 36.4232 77.1812 34.1692C77.1812 31.9151 78.9495 30.0876 81.1225 30.0876C83.293 30.0876 85.0613 31.9151 85.0613 34.1692ZM81.1225 29.2421C78.505 29.2421 76.3682 31.4486 76.3682 34.1692C76.3682 36.8823 78.505 39.0951 81.1225 39.0951C83.7463 39.0951 85.8731 36.8823 85.8731 34.1692C85.8731 31.4486 83.7463 29.2421 81.1225 29.2421Z" fill="#C11D2A"/>
<path d="M83.6185 34.1668C83.6185 35.5991 82.4983 36.7549 81.1221 36.7549C79.7458 36.7549 78.6306 35.5991 78.6306 34.1668C78.6306 32.7446 79.7458 31.5788 81.1221 31.5788C82.4983 31.5788 83.6185 32.7446 83.6185 34.1668ZM81.1221 30.7395C79.3 30.7395 77.8176 32.2768 77.8176 34.1668C77.8176 36.0619 79.3 37.6005 81.1221 37.6005C82.9491 37.6005 84.4302 36.0619 84.4302 34.1668C84.4302 32.2768 82.9491 30.7395 81.1221 30.7395Z" fill="#D61C24"/>
</g>
<defs>
<clipPath id="clip0_1045_13156">
<rect width="177" height="62" fill="white"/>
</clipPath>
</defs>
</svg>
