<svg width="100" height="62" viewBox="0 0 100 62" fill="none" xmlns="http://www.w3.org/2000/svg">
<path d="M63.4909 6.63135H36.4292V55.3686H63.4909V6.63135Z" fill="#FF5A00"/>
<path d="M38.2306 31C38.2306 21.0981 42.8743 12.3097 50 6.63139C44.7558 2.49806 38.1405 0 30.9247 0C13.8311 0 0 13.8647 0 31C0 48.1353 13.8311 62 30.9247 62C38.1405 62 44.7558 59.5019 50 55.3686C42.8643 49.7706 38.2306 40.9019 38.2306 31Z" fill="#EB001B"/>
<path d="M100 31C100 48.1353 86.1689 62 69.0753 62C61.8595 62 55.2442 59.5019 50 55.3686C57.2158 49.6803 61.7694 40.9019 61.7694 31C61.7694 21.0981 57.1257 12.3097 50 6.63139C55.2342 2.49806 61.8495 0 69.0652 0C86.1689 0 100 13.955 100 31Z" fill="#F79E1B"/>
</svg>
