<svg width="201" height="62" viewBox="0 0 201 62" fill="none" xmlns="http://www.w3.org/2000/svg">
<path fill-rule="evenodd" clip-rule="evenodd" d="M55.3583 52.2873C49.1666 58.1092 40.9202 61.3073 32.3782 61.1992C23.7939 61.3274 15.4993 58.1289 9.2676 52.2873C6.33547 49.4747 4.00427 46.1081 2.41229 42.3874C0.820319 38.6667 0 34.6676 0 30.6274C0 26.5872 0.820319 22.5881 2.41229 18.8674C4.00427 15.1467 6.33547 11.7801 9.2676 8.96752C15.4914 3.09126 23.8016 -0.128271 32.4044 0.00391527C40.9463 -0.104195 49.1928 3.09388 55.3844 8.91585C58.3198 11.7266 60.6539 15.0925 62.248 18.8135C63.842 22.5344 64.6634 26.5345 64.6634 30.5757C64.6634 34.617 63.842 38.617 62.248 42.338C60.6539 46.0589 58.3198 49.4248 55.3844 52.2356M32.4044 9.97495C29.6778 9.94888 26.9741 10.4695 24.4565 11.5054C21.9389 12.5414 19.6596 14.0711 17.7561 16.0023C15.8526 17.9336 14.3643 20.2263 13.3812 22.7421C12.398 25.2579 11.9403 27.9447 12.0357 30.6403C12.0357 33.2795 12.5612 35.8928 13.5822 38.3311C14.6032 40.7694 16.0997 42.9849 17.9862 44.8511C19.8728 46.7173 22.1124 48.1976 24.5774 49.2076C27.0423 50.2176 29.6841 50.7374 32.3521 50.7374C35.0201 50.7374 37.662 50.2176 40.1269 49.2076C42.5918 48.1976 44.8315 46.7173 46.718 44.8511C48.6046 42.9849 50.1011 40.7694 51.1221 38.3311C52.1431 35.8928 52.6686 33.2795 52.6686 30.6403C52.7636 27.9535 52.309 25.2753 51.3323 22.7664C50.3555 20.2575 48.8766 17.9696 46.9843 16.0398C45.092 14.1101 42.8252 12.5782 40.3198 11.536C37.8145 10.4938 35.1222 9.96288 32.4044 9.97495ZM131.637 7.21096L106.802 62L105.392 61.7417C98.2893 60.4759 96.853 58.7194 93.5366 51.5898L74.9175 11.4732H67.919V1.73464H94.3722V11.4732H88.0527L103.016 44.6669L117.535 11.4732H109.701V1.73464H131.637V7.21096ZM191.698 52.2873C185.426 58.0168 177.203 61.1985 168.666 61.1985C160.129 61.1985 151.905 58.0168 145.633 52.2873C142.701 49.4747 140.37 46.1081 138.778 42.3874C137.186 38.6667 136.366 34.6676 136.366 30.6274C136.366 26.5872 137.186 22.5881 138.778 18.8674C140.37 15.1467 142.701 11.7801 145.633 8.96752C151.905 3.23801 160.129 0.0562684 168.666 0.0562684C177.203 0.0562684 185.426 3.23801 191.698 8.96752C194.64 11.7746 196.98 15.1393 198.578 18.8607C200.176 22.5822 201 26.5841 201 30.6274C201 34.6707 200.176 38.6726 198.578 42.3941C196.98 46.1155 194.64 49.4802 191.698 52.2873ZM168.849 9.97495C166.121 9.94902 163.416 10.4696 160.897 11.5052C158.378 12.5408 156.097 14.0701 154.192 16.001C152.286 17.9318 150.795 20.2243 149.809 22.7402C148.823 25.2561 148.362 27.9434 148.454 30.6403C148.454 33.2795 148.979 35.8928 150 38.3311C151.021 40.7694 152.518 42.9849 154.404 44.8511C156.291 46.7173 158.531 48.1976 160.995 49.2076C163.46 50.2176 166.102 50.7374 168.77 50.7374C171.438 50.7374 174.08 50.2176 176.545 49.2076C179.01 48.1976 181.25 46.7173 183.136 44.8511C185.023 42.9849 186.519 40.7694 187.54 38.3311C188.561 35.8928 189.087 33.2795 189.087 30.6403C189.185 27.9547 188.734 25.2771 187.76 22.7684C186.786 20.2596 185.31 17.9714 183.42 16.0412C181.529 14.111 179.264 12.5787 176.76 11.5363C174.256 10.4938 171.565 9.96274 168.849 9.97495Z" fill="#4B2489"/>
</svg>
