<svg width="163" height="62" viewBox="0 0 163 62" fill="none" xmlns="http://www.w3.org/2000/svg">
<path d="M53.4196 10.1217L95.4551 10.1217L95.4551 35.4287L77.8204 35.4287L95.4552 51.6244L80.4743 51.6244L63.1799 35.4287L63.18 51.6244L53.4197 51.6244L53.4196 25.8975L84.2398 25.8975L84.2398 19.7393L53.4196 19.7393L53.4196 10.1217Z" fill="white"/>
<path d="M99.8201 51.6244L110.093 51.6244L110.093 10.0376L99.82 10.0376L99.8201 51.6244Z" fill="white"/>
<path d="M17.55 41.5862L17.5499 10.1216L9.5025 10.1216C8.0472 10.1216 6.9341 11.219 6.93411 12.567C6.93412 19.9927 6.84861 41.8394 6.84863 49.0936C6.84863 50.4433 7.96173 51.6243 9.33148 51.6243C14.896 51.6243 30.9047 51.6243 33.2153 51.6243L33.2152 41.5862L17.55 41.5862Z" fill="white"/>
<path d="M38.5234 62C39.4663 62 46.657 62 49.0549 62C49.0549 62 49.0549 41.5018 49.0549 41.1646C45.6297 41.1646 42.0359 41.1646 38.5234 41.1646C38.5234 48.0815 38.5234 54.9984 38.5234 62Z" fill="white"/>
<path d="M22.6865 10.1216C22.6865 10.2916 22.6865 20.4967 22.6865 20.4967C27.3952 20.4967 33.387 20.4967 38.5232 20.4967C38.5232 27.6689 38.5232 36.019 38.5232 36.019C40.9211 36.019 48.1118 36.0191 49.0547 36.0191L49.0546 12.6535C49.0546 11.3026 47.94 10.2051 46.5724 10.1216C41.4362 10.1216 29.278 10.1216 22.6865 10.1216Z" fill="white"/>
<path d="M22.6865 25.5574C22.6865 29.0167 22.6865 32.4761 22.6865 36.1024C23.5427 36.1024 24.4843 36.1024 25.3405 36.1024C27.7387 36.1024 30.733 36.1024 33.1309 36.1024C33.1309 36.1024 33.1309 25.7273 33.1309 25.5574C29.7058 25.5574 26.1966 25.5574 22.6865 25.5574ZM30.0492 32.8966C29.022 32.8966 27.823 32.8966 26.8801 32.8966C26.5391 32.8966 26.1966 32.8966 25.7685 32.8966C25.7685 31.4621 25.7685 30.1142 25.7685 28.6797C27.2235 28.6797 28.5942 28.6797 30.0492 28.6797C30.0492 28.7632 30.0492 32.8966 30.0492 32.8966Z" fill="white"/>
<path d="M160.518 41.1645L160.518 56.6857C160.518 58.0351 159.319 59.132 157.951 59.132L142.199 59.132L142.199 61.6624L160.518 61.6624L160.605 61.6624C161.888 61.6624 163 60.5658 163 59.2161L163 59.132L163 41.1645L160.518 41.1645Z" fill="white"/>
<path d="M2.5684 20.4132L2.56837 4.89085C2.56837 3.54289 3.5956 2.52894 4.96536 2.52895L20.7177 2.52895C20.8032 2.52895 20.8032 2.44545 20.8032 2.44545L20.8032 0.0835413C20.8032 0.0835413 20.8032 4.00301e-05 20.7177 3.99998e-05L2.56836 3.35779e-05C1.11305 3.30629e-05 -3.95173e-05 1.09749 -3.66013e-05 2.52894L-1.70097e-07 20.4132C0 20.4967 0.0855529 20.4967 0.0855529 20.4967L2.48285 20.4967C2.48285 20.4967 2.5684 20.4967 2.5684 20.4132Z" fill="white"/>
<path d="M156.065 20.4133L156.065 10.1217L114.545 10.1217L114.545 25.5575L114.545 35.9356L142.199 35.9356L142.199 41.0802L114.545 41.0802L114.545 51.4556L156.065 51.4556L156.065 25.644L128.414 25.644L128.414 20.4132L156.065 20.4133Z" fill="white"/>
</svg>
