<svg width="141" height="63" viewBox="0 0 141 63" fill="none" xmlns="http://www.w3.org/2000/svg">
<path fill-rule="evenodd" clip-rule="evenodd" d="M6.82148 9.96853H52.2696C55.2881 9.96853 57.7609 12.4478 57.7609 15.4743V47.3633C57.7609 50.3898 55.2881 52.8691 52.2696 52.8691H5.49129C2.47279 52.8691 0 50.3898 0 47.3633V7.96798C0 6.53169 1.17671 5.53997 2.59216 5.36898L44.5102 0C45.9427 0 47.1023 1.17981 47.1023 2.599V7.06175H4.19521C4.19521 8.94261 4.75798 9.96853 6.82148 9.96853ZM32.3168 44.9011C28.4797 45.6364 23.5682 44.3711 20.8908 41.4814C19.697 40.1819 21.6411 38.2155 22.852 39.5321C24.6426 41.4643 27.8487 42.3876 30.475 42.3192C33.8004 42.2508 36.7678 39.2073 34.8748 35.8046C32.2485 31.1025 25.8022 32.4191 22.4768 28.7258C19.7823 25.7506 21.0613 21.0656 24.2163 18.9795C27.5076 16.808 33.1865 16.8935 35.881 20.0054C37.0406 21.3391 35.0965 23.3055 33.9369 21.9547C31.754 19.4412 26.5867 19.7832 24.6255 22.3651C21.8117 26.0584 26.0069 28.0418 28.9401 28.931C32.9648 30.1621 37.4329 32.3849 38.1662 37.0186C38.746 40.7461 35.881 44.2172 32.3168 44.9011Z" fill="#EE4E2C"/>
<path fill-rule="evenodd" clip-rule="evenodd" d="M32.317 44.901C28.48 45.6362 23.5685 44.3709 20.8911 41.4812C19.6973 40.1817 21.6414 38.2154 22.8522 39.532C24.6429 41.4642 27.849 42.3875 30.4752 42.3191C33.8007 42.2507 36.7681 39.2071 34.8751 35.8045C32.2488 31.1024 25.8025 32.419 22.4771 28.7256C19.7826 25.7505 21.0616 21.0654 24.2165 18.9794C27.5079 16.8079 33.1868 16.8934 35.8813 20.0053C37.0409 21.339 35.0968 23.3054 33.9371 21.9546C31.7543 19.4411 26.587 19.783 24.6258 22.3649C21.812 26.0582 26.0072 28.0417 28.9404 28.9308C32.9651 30.1619 37.4331 32.3848 38.1665 37.0185C38.7463 40.746 35.8813 44.217 32.317 44.901Z" fill="#FEFEFE"/>
<path d="M110.593 8.00221C108.973 8.00221 107.507 8.70326 106.5 9.79758V8.51517C106.5 7.36956 104.659 7.36956 104.659 8.51517V23.562C104.659 24.7247 106.5 24.7247 106.5 23.562V16.8593C107.507 17.9707 108.973 18.6547 110.593 18.6547C113.612 18.6547 116.068 16.2609 116.068 13.3199C116.068 10.396 113.612 8.00221 110.593 8.00221ZM110.593 16.7225C108.666 16.7225 107.097 15.2008 107.097 13.3199C107.097 11.6442 108.376 10.225 110.031 9.96856C110.048 9.96856 110.048 9.96856 110.065 9.96856C110.235 9.93436 110.423 9.93436 110.593 9.93436C112.026 9.93436 113.254 10.7551 113.799 11.952C113.799 11.9691 113.799 11.9691 113.799 11.9691C113.987 12.3966 114.089 12.8411 114.089 13.3199C114.089 15.2008 112.52 16.7225 110.593 16.7225ZM97.0186 18.6547C94.0001 18.6547 91.5443 16.2609 91.5443 13.3199C91.5443 10.396 94.0001 8.00221 97.0186 8.00221C100.037 8.00221 102.493 10.396 102.493 13.3199C102.493 16.2609 100.037 18.6547 97.0186 18.6547ZM97.0186 9.93436C95.0915 9.93436 93.5226 11.4561 93.5226 13.3199C93.5226 15.2008 95.0915 16.7225 97.0186 16.7225C98.9456 16.7225 100.498 15.2008 100.498 13.3199C100.498 11.4561 98.9456 9.93436 97.0186 9.93436ZM141 13.2173C140.949 10.7722 139.653 8.56647 136.992 8.07061C134.69 7.66024 132.013 8.82295 131.024 10.9261C130.017 13.0976 130.444 16.0899 132.439 17.5946C134.622 19.236 137.999 18.7231 140.233 17.5262C141.256 16.9619 140.335 15.4059 139.295 15.9702C137.879 16.7396 136.037 17.1158 134.469 16.6028C133.275 16.2267 132.61 15.235 132.422 14.1235H140.079C140.557 14.1235 141 13.7132 141 13.2173ZM132.49 12.3282C132.49 12.2598 132.507 12.1914 132.541 12.123C132.968 10.6696 134.486 9.83177 136.003 9.78048C137.76 9.74628 138.749 10.909 139.056 12.3282H132.49ZM128.738 13.2344C128.687 10.7893 127.408 8.58357 124.731 8.08771C122.446 7.66024 119.751 8.84005 118.779 10.9432C117.756 13.1147 118.182 16.0899 120.195 17.6117C122.36 19.2531 125.737 18.7402 127.971 17.5262C128.994 16.979 128.073 15.423 127.033 15.9873C125.618 16.7567 123.776 17.1329 122.207 16.6199C121.013 16.2438 120.348 15.2521 120.16 14.1406H127.818C128.312 14.1406 128.738 13.7132 128.738 13.2344ZM120.229 12.3453C120.246 12.2769 120.263 12.2085 120.28 12.1401C120.723 10.6867 122.224 9.84887 123.742 9.79758C125.498 9.76338 126.487 10.9261 126.794 12.3453H120.229ZM89.3785 11.5074V17.7314C89.3785 18.9112 87.5367 18.9112 87.5367 17.7314V11.6271C87.4685 10.4302 86.4453 9.86597 86.4112 9.86597C85.098 9.28462 82.7276 9.55819 81.3121 11.3536V17.7314C81.3121 18.9112 79.4703 18.9112 79.4703 17.7314V1.7612C79.4703 0.581391 81.3121 0.581391 81.3121 1.7612V8.92554C83.5632 7.42086 86.4282 7.59185 87.7755 8.51517C87.7755 8.51517 89.4126 9.40431 89.3785 11.5074ZM76.4348 2.49644C74.6441 0.495897 70.8411 0.444601 68.6583 1.82959C66.5436 3.16329 65.6909 6.18976 67.4816 8.08771C69.6985 10.4644 74.0131 9.62659 75.7697 12.636C77.0316 14.8246 75.0534 16.7738 72.8194 16.8251C71.0799 16.8593 68.9482 16.278 67.7374 15.0298C66.9358 14.1919 65.6227 15.4401 66.4413 16.278C68.2149 18.1417 71.5062 18.9625 74.0472 18.4837C76.4348 18.0391 78.3618 15.8163 77.9696 13.4225C77.475 10.4473 74.4906 9.01104 71.8132 8.2245C69.852 7.66024 67.0552 6.37784 68.9141 4.01822C70.2443 2.35965 73.6721 2.13737 75.1387 3.74465C75.9231 4.61668 77.2192 3.35138 76.4348 2.49644Z" fill="#EE4E2C"/>
<path fill-rule="evenodd" clip-rule="evenodd" d="M124.458 62.1534H118.608L124.867 50.2869L114.601 30.8286H120.945L128.039 44.2853L135.15 30.8286H141L124.458 62.1534ZM66.1853 52.8688H71.0797V43.892H77.6966C84.5521 43.892 90.1116 39.0702 90.1116 33.1198C90.1116 27.1695 84.5521 22.3477 77.6966 22.3477H66.1853C66.1853 32.5214 66.1853 42.6951 66.1853 52.8688ZM71.0797 38.9676V27.2721H77.6966C81.4143 27.2721 84.4328 29.8882 84.4328 33.1198C84.4328 36.3515 81.4143 38.9676 77.6966 38.9676H71.0797ZM108.461 31.0167H112.776V52.6807H108.461V50.2527C106.551 51.8771 104.062 52.8688 101.35 52.8688C95.2789 52.8688 90.3504 47.9444 90.3504 41.8572C90.3504 35.7701 95.2789 30.8286 101.35 30.8286C104.062 30.8286 106.551 31.8203 108.461 33.4618V31.0167ZM101.35 35.4794C104.863 35.4794 107.711 38.3349 107.711 41.8572C107.711 45.3796 104.863 48.235 101.35 48.235C97.837 48.235 94.989 45.3796 94.989 41.8572C94.989 38.3349 97.837 35.4794 101.35 35.4794Z" fill="#EE4E2C"/>
</svg>
