<svg width="192" height="62" viewBox="0 0 192 62" fill="none" xmlns="http://www.w3.org/2000/svg">
<g clip-path="url(#clip0_1045_13121)">
<path d="M83.1998 61.1055H67.6465L77.3747 1.08789H92.9272L83.1998 61.1055Z" fill="#00579F"/>
<path d="M139.582 2.55519C136.514 1.34082 131.648 0 125.632 0C110.273 0 99.4565 8.17219 99.3902 19.856C99.2626 28.4762 107.134 33.2641 113.021 36.1384C119.039 39.0755 121.084 40.9925 121.084 43.6105C121.023 47.6312 116.222 49.4846 111.744 49.4846C105.534 49.4846 102.207 48.5291 97.1508 46.2921L95.1027 45.3332L92.9263 58.8058C96.5741 60.464 103.295 61.9355 110.272 62C126.592 62 137.217 53.9543 137.343 41.5034C137.405 34.6711 133.248 29.436 124.287 25.1581C118.847 22.412 115.516 20.5603 115.516 17.7505C115.58 15.1962 118.334 12.5799 124.474 12.5799C129.531 12.4518 133.246 13.6644 136.06 14.878L137.467 15.5153L139.582 2.55519Z" fill="#00579F"/>
<path d="M160.254 39.8434C161.535 36.3955 166.463 23.051 166.463 23.051C166.399 23.1791 167.742 19.5394 168.51 17.305L169.597 22.4765C169.597 22.4765 172.542 36.8427 173.182 39.8434C170.751 39.8434 163.326 39.8434 160.254 39.8434ZM179.452 1.08789H167.422C163.712 1.08789 160.893 2.17242 159.293 6.06758L136.19 61.1047H152.51C152.51 61.1047 155.197 53.6971 155.774 52.1017C157.564 52.1017 173.44 52.1017 175.743 52.1017C176.19 54.2088 177.599 61.1047 177.599 61.1047H192L179.452 1.08789Z" fill="#00579F"/>
<path d="M54.6557 1.08789L39.4239 42.0142L37.7594 33.7138C34.9433 24.1363 26.1116 13.7306 16.2559 8.55658L30.2077 61.0419H46.6549L71.1021 1.08789H54.6557Z" fill="#00579F"/>
<path d="M25.2798 1.08789H0.256004L0 2.30056C19.5201 7.2811 32.4479 19.2865 37.7594 33.7164L32.3195 6.13292C31.4239 2.29972 28.6717 1.21433 25.2798 1.08789Z" fill="#FAA61A"/>
</g>
<defs>
<clipPath id="clip0_1045_13121">
<rect width="192" height="62" fill="white"/>
</clipPath>
</defs>
</svg>
