<?xml version="1.0" encoding="UTF-8"?>
<svg version="1.1" xmlns="http://www.w3.org/2000/svg" width="1000" height="1000">
<path d="M0 0 C1.37991911 -0.00135395 2.75983774 -0.00330048 4.13975525 -0.00579834 C7.00443145 -0.00871441 9.8689813 -0.00456674 12.73364258 0.00488281 C16.36286238 0.01628617 19.99178645 0.00968971 23.62099552 -0.00226212 C26.46184934 -0.00956778 29.30263564 -0.00715358 32.14349174 -0.00200653 C34.11837334 -0.00006786 36.09325782 -0.00602478 38.06813049 -0.01226807 C58.40593485 0.09181563 74.34458725 4.02409083 89.77734375 17.703125 C103.647938 33.50019067 107.50795743 47.97790842 107.4609375 68.56640625 C107.46550989 70.33318785 107.47081857 72.09996768 107.4768219 73.866745 C107.48571365 77.55568705 107.48337599 81.24441217 107.47338867 84.93334961 C107.46191849 89.62333576 107.48210069 94.31256673 107.51130581 99.0024538 C107.52979685 102.64799125 107.52934964 106.29335213 107.52366829 109.93892479 C107.52351657 111.66621139 107.52943506 113.39351113 107.54195976 115.12075233 C107.66200902 134.38993475 103.32381813 150.45665716 89.66796875 164.87890625 C78.11348293 175.32238382 64.2029029 181.38138597 48.53759766 181.44262695 C47.43147629 181.45248375 47.43147629 181.45248375 46.30300903 181.46253967 C43.86997351 181.48219457 41.43699977 181.49392338 39.00390625 181.50390625 C37.74805788 181.51001954 37.74805788 181.51001954 36.46683884 181.51625633 C32.02753704 181.53709287 27.58826584 181.55139997 23.14892578 181.56079102 C18.60241492 181.57179634 14.05640146 181.60613436 9.51006508 181.64596272 C5.9820374 181.67234184 2.45412389 181.68050196 -1.07399368 181.68407249 C-2.74744618 181.68889079 -4.42089527 181.70036561 -6.09424973 181.71911049 C-25.152964 181.91918266 -41.41663005 178.14172035 -55.6875 164.6171875 C-71.47923582 148.36654654 -74.12196991 130.63028957 -74.140625 108.81640625 C-74.14384932 107.43173694 -74.14721422 106.04706794 -74.15071106 104.66239929 C-74.15666297 101.77207654 -74.15855511 98.88178351 -74.15795898 95.99145508 C-74.15785774 92.33194461 -74.17148885 88.67262979 -74.18873119 85.01316547 C-74.19998482 82.15511747 -74.20187413 79.29711473 -74.20134926 76.43904686 C-74.20306532 74.4481448 -74.21381952 72.45725686 -74.22489929 70.46638489 C-74.17606276 50.6576968 -70.71745812 32.54831887 -56.72265625 17.515625 C-40.53289323 2.44364072 -21.14725485 -0.06695991 0 0 Z " fill="#E96245" transform="translate(271.97265625,118.734375)"/>
<path d="M0 0 C0.8109462 -0.00671722 1.6218924 -0.01343445 2.45741272 -0.02035522 C5.11587802 -0.03922085 7.77408927 -0.04325375 10.43261719 -0.04541016 C12.29815775 -0.05184656 14.16369733 -0.05857553 16.02923584 -0.06558228 C19.93276304 -0.07752688 23.83620193 -0.08126606 27.73974609 -0.08007812 C32.71358082 -0.07987522 37.68684236 -0.10716039 42.66054153 -0.14162254 C46.51272117 -0.16398694 50.364765 -0.16791274 54.21700287 -0.16685867 C56.04922203 -0.16920094 57.88144572 -0.17794595 59.71360016 -0.19352341 C78.65012251 -0.33944459 93.81951888 4.0729277 107.90136719 17.45068359 C122.07147798 33.05927533 124.81040438 50.8586369 124.74511719 71.13427734 C124.74646903 72.63537661 124.74841385 74.13647545 124.75091553 75.63757324 C124.75384242 78.76395896 124.74964846 81.89022939 124.74023438 85.01660156 C124.72884129 88.99024386 124.73541396 92.96361581 124.7473793 96.93724823 C124.75466426 100.03108699 124.75227981 103.12486342 124.74712372 106.21870422 C124.74580549 107.6824802 124.74736952 109.14626215 124.75208282 110.61003113 C124.79815043 128.92956179 122.04955871 144.58851888 110.47949219 159.29052734 C109.85429688 160.12583984 109.22910156 160.96115234 108.58496094 161.82177734 C100.11440356 171.75385946 85.58443348 179.3094794 72.53300858 180.46248627 C67.06126113 180.74738349 61.58582287 180.71119917 56.10839844 180.68896484 C54.33682638 180.69099068 52.56525515 180.69390634 50.79368591 180.69766235 C47.09634392 180.7020629 43.39922067 180.69572911 39.7019043 180.68164062 C34.99389219 180.66456272 30.28639386 180.67439557 25.57840061 180.69235802 C21.92437463 180.70326832 18.27046774 180.69971631 14.61643791 180.69197464 C12.88192622 180.68999194 11.14740324 180.69236297 9.41290474 180.6994133 C-10.3750453 180.76221025 -26.43889233 176.49544101 -40.86035156 162.17333984 C-50.95718723 151.23139459 -56.64196679 137.34578165 -56.69750977 122.49365234 C-56.70736656 121.33882103 -56.70736656 121.33882103 -56.71742249 120.16065979 C-56.73707883 117.62061447 -56.74880445 115.08062822 -56.75878906 112.54052734 C-56.76286459 111.66770111 -56.76694012 110.79487488 -56.77113914 109.89559937 C-56.79197293 105.27057129 -56.80628309 100.6455726 -56.81567383 96.02050781 C-56.82669865 91.27427175 -56.8610606 86.5285096 -56.90084553 81.78244019 C-56.92716375 78.1069459 -56.93537933 74.43156164 -56.93895531 70.75598145 C-56.94378653 69.00830912 -56.95529987 67.26064055 -56.9739933 65.51306152 C-57.15586061 47.37553651 -53.16569254 30.97708023 -40.52050781 17.29052734 C-29.43326575 6.64041669 -15.42149956 -0.01870671 0 0 Z " fill="#F0974E" transform="translate(677.5205078125,299.70947265625)"/>
<path d="M0 0 C1.77157206 -0.00202583 3.54314329 -0.00494149 5.31471252 -0.00869751 C9.01205452 -0.01309806 12.70917776 -0.00676426 16.40649414 0.00732422 C21.11450624 0.02440212 25.82200458 0.01456927 30.52999783 -0.00339317 C34.1840238 -0.01430348 37.8379307 -0.01075147 41.49196053 -0.0030098 C43.22647222 -0.0010271 44.9609952 -0.00339812 46.6954937 -0.01044846 C66.48344374 -0.0732454 82.54729077 4.19352383 96.96875 18.515625 C107.06558566 29.45757026 112.75036523 43.34318319 112.8059082 58.1953125 C112.8124794 58.96520004 112.8190506 59.73508759 112.82582092 60.52830505 C112.84547727 63.06835038 112.85720288 65.60833662 112.8671875 68.1484375 C112.87126303 69.02126373 112.87533855 69.89408997 112.87953758 70.79336548 C112.90037137 75.41839355 112.91468153 80.04339224 112.92407227 84.66845703 C112.93509709 89.4146931 112.96945903 94.16045524 113.00924397 98.90652466 C113.03556219 102.58201894 113.04377776 106.25740321 113.04735374 109.9329834 C113.05218496 111.68065572 113.06369831 113.4283243 113.08239174 115.17590332 C113.2683685 133.72326168 109.17154897 149.27338342 96.02734375 163.05078125 C84.96170434 173.88213187 72.24865503 180.52005642 56.5625 180.57543945 C55.75213791 180.58201065 54.94177582 180.58858185 54.1068573 180.59535217 C51.42670591 180.61504857 48.74661062 180.62674313 46.06640625 180.63671875 C45.14728455 180.64079428 44.22816284 180.6448698 43.28118896 180.64906883 C38.41093167 180.66991965 33.54070241 180.68422246 28.67041016 180.69360352 C23.66510631 180.70463176 18.66025146 180.73899288 13.65510559 180.77877522 C9.78577916 180.80505969 5.91655749 180.81330607 2.04714966 180.81688499 C0.20375557 180.82172489 -1.63963467 180.83326378 -3.48294067 180.85192299 C-22.47996561 181.03218402 -37.6603994 176.66422214 -51.79296875 163.23828125 C-66.46954501 147.07181013 -68.70305238 128.35900262 -68.63671875 107.4609375 C-68.63807286 106.08341402 -68.6400195 104.70589102 -68.64251709 103.32836914 C-68.64543343 100.46788904 -68.64128526 97.60753547 -68.63183594 94.74707031 C-68.62044349 91.12691669 -68.62702201 87.50705991 -68.63898087 83.88691711 C-68.64629512 81.05031194 -68.64386834 78.21377424 -68.63872528 75.37716675 C-68.63679001 73.4084249 -68.64273776 71.43968015 -68.64898682 69.47094727 C-68.54486259 49.12647151 -65.09323799 32.99974256 -50.87109375 17.7109375 C-49.63359375 16.56625 -49.63359375 16.56625 -48.37109375 15.3984375 C-47.89542969 14.92921875 -47.41976562 14.46 -46.9296875 13.9765625 C-33.59502767 1.50945885 -17.28712103 -0.07017303 0 0 Z " fill="#F1974E" transform="translate(268.37109375,519.6015625)"/>
<path d="M0 0 C0.79900223 -0.0065712 1.59800446 -0.0131424 2.42121887 -0.01991272 C5.06409815 -0.03960994 7.7069205 -0.05130478 10.34985352 -0.0612793 C11.25669451 -0.06535482 12.1635355 -0.06943035 13.09785652 -0.07362938 C17.90442805 -0.09448203 22.71097117 -0.10878322 27.51757812 -0.11816406 C32.45328451 -0.12918375 37.3885345 -0.16353425 42.32408047 -0.20333576 C46.14283513 -0.22964606 49.96148382 -0.23786895 53.78032112 -0.24144554 C55.59776936 -0.24627999 57.41521389 -0.25780285 59.23257256 -0.27648354 C77.65073681 -0.45392826 93.25515006 3.24432114 107.23657227 16.23950195 C113.13343484 22.57033277 117.79285441 30.16723533 121.04125977 38.17700195 C121.28955032 38.77284592 121.53784088 39.36868988 121.7936554 39.98258972 C124.93950749 48.73509218 124.49516781 57.681152 124.47485352 66.8527832 C124.47942398 68.66823012 124.4847321 70.48367531 124.49073792 72.29911804 C124.49963753 76.09238744 124.49728291 79.88544597 124.48730469 83.67871094 C124.47583365 88.50669957 124.49601402 93.33395473 124.52522182 98.16184711 C124.54369322 101.90856954 124.54326948 105.65511985 124.5375843 109.40187645 C124.53743235 111.18022882 124.5433713 112.95859382 124.55587578 114.73690224 C124.66883477 133.4353017 120.59205179 148.9642306 107.39282227 162.8918457 C92.42898948 177.43311178 76.61999155 180.6559025 56.48657227 180.6105957 C54.69497482 180.61516749 52.90337911 180.62047599 51.11178589 180.6264801 C47.37157023 180.63537198 43.63156854 180.63303347 39.89135742 180.62304688 C35.13177506 180.61156797 30.37293586 180.63177226 25.613451 180.66096401 C21.91734231 180.67943589 18.22140808 180.67901173 14.52526474 180.67332649 C12.772032 180.67317459 11.01878642 180.67910898 9.2655983 180.69161797 C-9.6555524 180.80762246 -25.36156384 176.57506676 -39.18920898 163.08325195 C-53.40918901 148.56893234 -56.43498493 132.78312101 -56.39233398 113.2824707 C-56.39690426 111.44460356 -56.40221232 109.60673813 -56.40821838 107.76887512 C-56.41711871 103.92852815 -56.41476253 100.08838947 -56.40478516 96.24804688 C-56.39331381 91.35952752 -56.41349464 86.47173252 -56.44270229 81.58330822 C-56.46117139 77.7902632 -56.4607504 73.99738823 -56.45506477 70.20430946 C-56.45491279 68.40362852 -56.46085401 66.60293514 -56.47335625 64.80229759 C-56.58157126 46.66096938 -52.92797993 30.87618734 -40.08374023 17.11450195 C-31.75181674 9.51774818 -22.72339914 4.56839941 -11.95874023 1.17700195 C-11.40560654 0.99760574 -10.85247284 0.81820953 -10.28257751 0.63337708 C-6.86837623 -0.03713309 -3.46602539 0.01241553 0 0 Z " fill="#E96245" transform="translate(464.958740234375,209.822998046875)"/>
<path d="M0 0 C1.78730988 -0.00270322 3.5746183 -0.00659248 5.36192322 -0.01159668 C9.08428121 -0.01745126 12.80625194 -0.00905968 16.52856445 0.00976562 C21.26455244 0.03256955 25.99963404 0.01939724 30.73558903 -0.00452423 C34.41884513 -0.01907821 38.10189142 -0.01433289 41.78515434 -0.00401306 C43.53000436 -0.00137306 45.27487438 -0.00451773 47.019701 -0.01393127 C64.94335696 -0.08945815 80.50529494 3.53482093 93.8359375 16.21875 C94.60035156 16.981875 95.36476563 17.745 96.15234375 18.53125 C97.12880859 19.4903125 97.12880859 19.4903125 98.125 20.46875 C110.9310357 33.97841404 112.6256973 50.41349844 112.5859375 68.05078125 C112.59050967 69.83998307 112.59581828 71.62918315 112.6018219 73.41838074 C112.61071448 77.1544003 112.60837501 80.89020568 112.59838867 84.6262207 C112.58691816 89.37673737 112.60710081 94.12650852 112.63630581 98.87692738 C112.65479423 102.56878739 112.65435015 106.26047301 112.64866829 109.95236778 C112.64851654 111.70198294 112.65443764 113.45161106 112.66695976 115.20118141 C112.78373723 134.19147655 108.90698479 148.95348482 95.5625 163.14453125 C84.2508178 174.3462133 71.03199306 180.84212457 54.9230957 180.82177734 C54.14301651 180.82849457 53.36293732 180.83521179 52.55921936 180.84213257 C50.0029548 180.86099103 47.44695462 180.86503092 44.890625 180.8671875 C43.09474077 180.8736251 41.29885757 180.88035416 39.50297546 180.88735962 C35.74487887 180.89930297 31.98687398 180.90304361 28.22875977 180.90185547 C23.44558425 180.90165274 18.6630059 180.92892081 13.8799715 180.96339989 C10.17100906 180.98579199 6.46218737 180.98968922 2.75316429 180.98863602 C0.99154801 180.99097481 -0.77007319 180.99969958 -2.53162193 181.01530075 C-13.00204408 181.09933501 -21.96485318 180.45146673 -31.84765625 176.53125 C-33.20083199 175.99496475 -33.20083199 175.99496475 -34.5813446 175.44784546 C-48.58314653 169.56110889 -58.9987231 156.12915888 -64.84765625 142.53125 C-68.54926029 132.87296237 -68.30418732 123.18662029 -68.28125 113.01171875 C-68.28582217 111.22251693 -68.29113078 109.43331685 -68.2971344 107.64411926 C-68.30602698 103.9080997 -68.30368751 100.17229432 -68.29370117 96.4362793 C-68.28223066 91.68576263 -68.30241331 86.93599148 -68.33161831 82.18557262 C-68.35010673 78.49371261 -68.34966265 74.80202699 -68.34398079 71.11013222 C-68.34382904 69.36051706 -68.34975014 67.61088894 -68.36227226 65.86131859 C-68.48200917 46.38976051 -64.33497232 31.18648475 -50.59765625 16.65625 C-35.7812008 2.6550053 -19.50858485 -0.10539323 0 0 Z " fill="#F1984E" transform="translate(478.84765625,409.46875)"/>
<path d="M0 0 C1.65514232 -0.00644202 3.31028354 -0.01317138 4.96542358 -0.02017212 C8.42668288 -0.03210248 11.88784271 -0.03585753 15.34912109 -0.03466797 C19.74310514 -0.03446546 24.13643748 -0.06171564 28.53026772 -0.09621239 C31.94850479 -0.11866469 35.36658984 -0.1224999 38.78489304 -0.12144852 C40.40251272 -0.12377902 42.02013829 -0.13245509 43.63768387 -0.14811325 C62.48522049 -0.31343359 78.65105174 3.63387857 92.73828125 16.984375 C108.53001707 33.23501596 111.17275116 50.97127293 111.19140625 72.78515625 C111.19463057 74.16982556 111.19799547 75.55449456 111.20149231 76.93916321 C111.20744422 79.82948596 111.20933636 82.71977899 111.20874023 85.61010742 C111.20863899 89.26961789 111.2222701 92.92893271 111.23951244 96.58839703 C111.25076607 99.44644503 111.25265538 102.30444777 111.25213051 105.16251564 C111.25384657 107.1534177 111.26460077 109.14430564 111.27568054 111.13517761 C111.22779377 130.55863218 108.0012845 147.96057564 94.69140625 162.96484375 C79.23711428 178.14109748 60.80971355 181.48360051 39.859375 181.5390625 C39.13397144 181.54188988 38.40856789 181.54471725 37.6611824 181.54763031 C33.81952816 181.56255571 29.9779108 181.57182621 26.13623047 181.57617188 C22.2096927 181.58163636 18.28350518 181.60564054 14.35707664 181.63414383 C11.30090411 181.65295753 8.24481268 181.65798571 5.18858719 181.65950775 C3.74319171 181.66249449 2.29779624 181.67038444 0.85245895 181.68369293 C-17.16635362 181.83772557 -34.22262003 178.61900807 -47.9765625 166.3359375 C-48.65332031 165.76359375 -49.33007812 165.19125 -50.02734375 164.6015625 C-60.22278396 155.33657994 -67.44838129 140.90740683 -68.34744263 127.12098694 C-68.53462598 122.32562853 -68.50733807 117.53235151 -68.47265625 112.734375 C-68.47281165 110.96326641 -68.47430746 109.19215748 -68.47706604 107.42105103 C-68.47844135 103.73139179 -68.46603636 100.04212538 -68.44311523 96.35253906 C-68.41469136 91.65118915 -68.41749105 86.95048848 -68.43020535 82.24909019 C-68.43719744 78.59938116 -68.42933385 74.94981918 -68.41694832 71.30012894 C-68.412471 69.56758821 -68.41206402 67.83503149 -68.41601372 66.10248947 C-68.43922113 46.9768144 -64.26070362 30.79634489 -50.57421875 16.73828125 C-35.80674694 3.08114566 -19.40287199 0.01785423 0 0 Z " fill="#F1C34E" transform="translate(686.9765625,699.6640625)"/>
<path d="M0 0 C0.76057205 -0.00671722 1.5211441 -0.01343445 2.30476379 -0.02035522 C4.7960989 -0.03920731 7.28716264 -0.04325325 9.77856445 -0.04541016 C11.52960821 -0.05184825 13.28065092 -0.05857734 15.0316925 -0.06558228 C18.69563283 -0.07752407 22.3594791 -0.08126643 26.0234375 -0.08007812 C30.68555113 -0.07987541 35.34705197 -0.10714213 40.00902081 -0.14162254 C43.62533762 -0.16402069 47.24151014 -0.1679117 50.85788918 -0.16685867 C52.57484861 -0.16919661 54.29181314 -0.17791643 56.00870323 -0.19352341 C74.96024553 -0.34963966 90.43421636 4.06045663 104.25512695 17.52490234 C118.52294893 32.14374165 121.43257759 48.32347896 121.4230957 67.99365234 C121.43021421 69.80287913 121.43791562 71.61210371 121.44616699 73.42132568 C121.45955273 77.20021854 121.46120783 80.9789027 121.45532227 84.7578125 C121.4494387 89.55991939 121.47998985 94.36101092 121.52043915 99.16292191 C121.546507 102.89686313 121.5491763 106.63056623 121.54554749 110.36458588 C121.54722165 112.1329274 121.55669649 113.90128202 121.57469177 115.66953278 C121.72259949 132.00033375 118.77129557 144.77477409 108.9543457 158.29052734 C108.43098633 159.04978516 107.90762695 159.80904297 107.3684082 160.59130859 C106.90176758 161.15205078 106.43512695 161.71279297 105.9543457 162.29052734 C105.2943457 162.29052734 104.6343457 162.29052734 103.9543457 162.29052734 C103.6243457 163.28052734 103.2943457 164.27052734 102.9543457 165.29052734 C95.10968805 171.87707953 86.72028228 176.21377658 76.9543457 179.29052734 C76.39677078 179.46959625 75.83919586 179.64866516 75.26472473 179.8331604 C71.92507985 180.49428273 68.60221816 180.46357625 65.2109375 180.48339844 C64.434655 180.49157593 63.6583725 180.49975342 62.85856628 180.50817871 C60.29023997 180.53297648 57.72196915 180.5495434 55.15356445 180.56396484 C54.27128489 180.56928852 53.38900532 180.5746122 52.47999001 180.5800972 C47.80079646 180.60681737 43.12162936 180.62618713 38.44238281 180.640625 C34.59480697 180.65390339 30.74776914 180.68164379 26.90039062 180.72265625 C22.23374201 180.77238991 17.56757704 180.79679652 12.90067482 180.80385208 C11.13509653 180.81050291 9.36952638 180.82556052 7.60410118 180.84974289 C-10.92484789 181.08885971 -25.7213586 176.75419389 -40.0456543 164.29052734 C-40.0456543 163.63052734 -40.0456543 162.97052734 -40.0456543 162.29052734 C-40.7056543 162.29052734 -41.3656543 162.29052734 -42.0456543 162.29052734 C-43.59725599 160.42799565 -44.9856623 158.59274634 -46.3581543 156.60302734 C-46.75969727 156.02302979 -47.16124023 155.44303223 -47.57495117 154.84545898 C-51.43812701 149.0530356 -53.95507145 142.92626129 -56.0456543 136.29052734 C-56.31425766 135.45984489 -56.31425766 135.45984489 -56.58828735 134.61238098 C-57.25855159 131.20974011 -57.21883692 127.81836264 -57.23852539 124.36352539 C-57.24670288 123.56773575 -57.25488037 122.77194611 -57.26330566 121.95204163 C-57.28810678 119.3187839 -57.30467093 116.6855803 -57.3190918 114.05224609 C-57.32441547 113.1479014 -57.32973915 112.24355671 -57.33522415 111.31180763 C-57.36194535 106.51590448 -57.38131507 101.72002714 -57.39575195 96.92407227 C-57.40903253 92.97949736 -57.43677704 89.03544696 -57.4777832 85.09106445 C-57.52749997 80.30770832 -57.55192146 75.52482386 -57.55897903 70.74122047 C-57.56563237 68.93098613 -57.5806968 67.12075983 -57.60486984 65.31067467 C-57.84081372 46.55838642 -53.57977031 31.84188806 -41.0456543 17.29052734 C-29.2886642 6.83986948 -16.05254123 -0.02081862 0 0 Z " fill="#F1C34E" transform="translate(468.045654296875,609.70947265625)"/>
</svg>
