<svg width="308" height="417" viewBox="0 0 308 417" fill="none" xmlns="http://www.w3.org/2000/svg">
<path d="M153.725 141.37L153.85 217.333L306.719 141.119L306.786 182.088C306.897 249.494 272.953 283.252 204.957 283.364L88.3894 283.555L88.6064 415.96L1.18171 416.103L0.856285 217.584L153.725 141.37ZM153.725 141.37L302.981 66.9565C292.515 22.5616 259.686 0.409601 204.494 0.500076L0.500977 0.834473L0.731761 141.62L153.601 65.406L153.725 141.37Z" fill="black"/>
<path d="M153.725 141.37L153.85 217.333L306.719 141.119L306.786 182.088C306.897 249.494 272.953 283.252 204.957 283.364L88.3894 283.555L88.6064 415.96L1.18171 416.103L0.856285 217.584L153.725 141.37ZM153.725 141.37L302.981 66.9565C292.515 22.5616 259.686 0.409601 204.494 0.500076L0.500977 0.834473L0.731761 141.62L153.601 65.406L153.725 141.37Z" stroke="black"/>
</svg>
