<svg width="203" height="160" viewBox="0 0 203 160" fill="none" xmlns="http://www.w3.org/2000/svg">
<path d="M140.03 0C128.41 0 116.53 8.57 112.39 19.93L61.4199 159.96H84.4499L132.72 27.33C133.82 24.32 137.72 21.64 140.02 21.64H202.41V0H140.02H140.03Z" fill="black"/>
<path d="M202.42 43.8101H150.29L142.51 65.4501H202.42V43.8101Z" fill="black"/>
<path d="M0 0V21.64H89.91L98.21 0H0Z" fill="black"/>
<path d="M71.61 50.6801C68.55 46.3101 63.55 43.8101 57.88 43.8101H0V65.4501H50.74L29.04 125.06H52.07L73.33 66.6401C75.39 60.9901 74.76 55.1701 71.61 50.6801Z" fill="black"/>
</svg>
